<svg width="96" height="71" viewBox="0 0 96 71" fill="none" xmlns="http://www.w3.org/2000/svg">
<path d="M36.7965 6.08068C20.7613 4.05379 6.02019 14.1319 1.74414 29.1647C10.1274 37.4412 35.7275 39.2992 61.8902 24.3227C57.3328 14.695 48.1618 7.54454 36.7965 6.08068Z" fill="url(#paint0_radial_23_411)"/>
<path d="M64.197 31.2478C47.2053 44.0848 23.5745 57.3722 5.17627 54.7823C7.37056 58.4419 10.2963 61.5949 13.7846 64.1285C34.4335 61.426 51.7064 46.5058 64.6471 33.8377C64.5346 32.9932 64.4221 32.1486 64.197 31.2478Z" fill="url(#paint1_radial_23_411)"/>
<path d="M64.8158 34.9639C57.1077 45.3235 39.5534 64.9731 22.2241 68.5202C24.2496 69.1958 26.3876 69.7588 28.6382 70.0403C46.305 72.2924 62.4527 59.7933 64.7033 42.1706C64.9846 39.7496 65.0409 37.3286 64.8158 34.9639Z" fill="url(#paint2_radial_23_411)"/>
<path d="M76.8567 17.116C72.2993 20.7194 67.5732 23.816 62.7907 26.5748C40.5103 39.2992 17.2171 42.5084 0.450439 37.9479C0.450439 41.6076 1.01307 45.1547 2.19461 48.5328C19.974 52.474 42.1419 42.9589 63.4659 28.5454C68.0233 25.4488 72.5244 22.1269 76.9692 18.6925C79.051 16.4967 78.8259 15.8774 76.8567 17.116Z" fill="url(#paint3_radial_23_411)"/>
<path d="M36.9653 19.0865C35.2774 18.7487 36.9653 17.3974 36.1776 17.0596C35.3899 16.7218 35.5024 18.073 34.0396 18.5234C32.5767 18.9739 33.5332 17.3974 32.858 16.215C32.1266 15.0327 29.9886 15.089 29.8198 15.5957C29.651 16.1024 29.3134 16.2713 29.3134 17.2285C29.3134 18.1856 30.6638 18.5797 28.8633 18.9739C27.1191 19.368 28.5257 19.7621 28.2444 20.3814C27.9631 21.0008 27.5692 20.8318 27.513 20.0999C27.513 19.368 27.738 18.2982 25.4875 18.2419C23.2369 18.1856 22.8994 15.9898 23.5183 15.089C24.1934 14.1882 25.0374 14.7512 25.7125 14.526C26.3877 14.3008 26.0501 13.5125 27.0066 13.6251C27.9631 13.7377 29.0884 13.231 28.8071 12.2739C28.5257 11.2604 27.513 12.3302 26.5002 12.6117C25.4875 12.8932 26.669 12.3302 25.4312 11.8234C24.1934 11.373 24.3622 12.668 23.7996 13.0058C23.2369 13.3436 23.0682 12.8932 21.9991 12.7806C20.9301 12.668 19.6361 12.8932 18.7358 13.3436C17.8356 13.7377 15.9789 13.0058 14.6848 12.6117C12.5468 14.1318 10.5776 15.9335 8.88967 17.9604C9.05846 18.4108 9.22725 18.9176 9.33978 19.368C9.73363 21.1134 9.67736 20.2688 10.1275 21.6201C10.5776 22.9713 9.78989 24.8856 8.72088 26.6873C7.65186 28.489 8.83341 27.4756 9.73363 28.7705C10.6338 30.0655 9.73362 29.5024 9.84615 30.1781C9.90242 30.6285 10.2963 31.5293 10.7464 32.6554C10.9152 32.7117 11.1402 32.768 11.309 32.8243C10.8026 31.3041 11.084 30.5159 11.4215 31.3604C11.5903 31.8672 11.9279 32.3739 12.3218 33.0495C13.8971 33.4436 15.6976 33.7251 17.6668 33.9503C17.9481 33.4436 18.342 33.0495 18.8484 33.0495C20.3112 33.1058 19.5798 33.1621 21.0426 32.768C22.5055 32.4302 21.8303 32.6554 22.4492 32.8243C22.8431 32.9369 23.2932 33.4436 24.0246 34.1192C24.6998 34.1192 25.375 34.0629 26.1064 34.0066C25.9376 33.331 25.7125 32.5428 25.6563 32.036C25.5438 30.6285 27.2317 30.7411 28.0194 29.5587C28.8071 28.3764 29.8761 27.6445 31.0576 26.7436C32.2391 25.8428 31.9016 25.7865 33.1956 25.7302C34.4897 25.6739 33.477 26.1806 34.4334 26.1806C35.3899 26.1806 35.9526 25.2235 34.4334 24.5478C32.9143 23.9285 35.0523 23.7596 33.8145 23.4781C32.5767 23.1966 32.9706 22.7461 32.9706 22.7461C32.9706 22.7461 36.2339 22.2957 38.2594 22.4646C40.2849 22.6335 39.7222 20.2125 39.6097 19.4243C39.3846 18.7487 38.6532 19.4243 36.9653 19.0865ZM28.1319 11.2041C28.6383 11.2604 31.2827 11.7108 32.1829 12.3865C33.0831 13.0621 32.8581 13.7377 31.564 13.794C30.72 13.8503 29.7073 13.9066 31.0576 14.2445C32.4079 14.6386 32.9706 14.3008 33.3082 15.089C33.6457 15.8772 34.7148 16.4403 34.771 16.1587C34.8273 15.8209 33.4207 15.1453 34.6585 15.3142C35.8963 15.4831 36.2339 15.5957 35.7838 14.9201C35.3337 14.2445 33.702 13.5688 35.1649 13.794C36.6277 13.9629 39.2721 15.9335 36.9653 13.9066C34.6585 11.8797 34.546 12.5554 34.6585 11.8798C34.7148 11.2604 36.0088 11.4293 34.0959 11.0352C32.2392 10.6974 31.9578 11.2041 31.6765 10.5285C31.4515 9.85286 31.5077 8.67051 30.495 9.74026C29.4822 10.81 30.2136 11.7671 29.4822 10.81C28.7508 9.85286 26.8941 10.0781 26.8941 10.0781C27.0066 11.0915 27.6255 11.1478 28.1319 11.2041ZM50.4124 12.2739C46.8115 9.79656 42.5917 8.05117 37.9781 7.26294C38.0343 7.76966 38.1468 8.33269 38.2594 8.95202C38.3156 9.34613 37.6405 9.62765 38.6532 10.1907C39.666 10.7537 41.1288 10.81 40.3411 11.1478C39.5534 11.4856 38.597 11.373 39.1033 11.6545C39.6097 11.9361 40.7912 11.9924 40.3411 12.105C39.891 12.2739 39.1033 11.7108 39.4972 12.8369C39.891 13.9629 39.8348 14.5823 41.2414 16.0461C42.648 17.51 43.6044 15.9335 43.8295 16.7781C44.0545 17.6789 43.2669 18.5234 44.5047 19.0865C45.6862 19.6495 45.9675 18.4108 45.9113 17.1159C45.855 15.8209 44.786 15.7083 46.08 15.089C47.3178 14.526 47.4866 15.1453 48.2181 14.3008C48.9495 13.4562 49.1183 13.231 49.062 12.8932C48.9495 12.8932 49.6247 12.6117 50.4124 12.2739Z" fill="url(#paint4_radial_23_411)"/>
<path d="M91.8789 5.85535C90.4723 5.74274 88.2781 6.75619 87.2091 7.20661C86.1963 7.65703 83.2706 9.90914 80.7387 11.1478C78.1506 12.3864 76.1813 12.3864 74.2684 12.3301C72.3554 12.2738 68.9233 11.7671 65.9976 13.231C63.8033 14.2444 63.4095 14.7512 63.747 15.089C64.0846 15.4268 68.5295 15.4831 70.78 16.0461C73.0868 16.6091 73.8745 17.1159 73.8745 17.1159L75.3937 16.947C75.3937 16.947 71.0051 20.8318 70.2174 21.2822C69.4297 21.7327 68.4169 21.5075 66.0539 21.7327C63.6908 21.9579 62.6218 23.5343 63.1281 23.5906C63.522 23.6469 67.5167 23.9285 69.7673 24.1537C77.1378 18.9175 89.7409 9.28981 89.7409 9.28981C92.3291 7.03771 93.6231 5.74274 91.8789 5.85535ZM82.4829 19.1991C82.9893 19.0301 83.8332 17.51 83.4956 14.9764L79.3321 18.2419C80.1761 18.8612 82.0328 19.368 82.4829 19.1991Z" fill="url(#paint5_radial_23_411)"/>
<path d="M76.5189 0.112549L77.2503 1.57642L78.8257 1.80162L77.6441 2.87138L77.9255 4.44784L76.5189 3.71592L75.1123 4.44784L75.3936 2.87138L74.2683 1.80162L75.8437 1.57642L76.5189 0.112549Z" fill="url(#paint6_radial_23_411)"/>
<path d="M91.5975 13.9067L92.6665 16.0462L95.0296 16.4404L93.3417 18.1294L93.7355 20.4941L91.5975 19.3681L89.4032 20.4941L89.8533 18.1294L88.1091 16.4404L90.5285 16.0462L91.5975 13.9067Z" fill="#00ABE6"/>
<path d="M59.6398 6.13696L60.0336 6.9815L60.9901 7.15041L60.3149 7.76974L60.4837 8.72688L59.6398 8.27646L58.7958 8.72688L58.9646 7.76974L58.2332 7.15041L59.1896 6.9815L59.6398 6.13696Z" fill="url(#paint7_radial_23_411)"/>
<path d="M68.4731 6.13696L68.6982 6.64369L69.2608 6.69999L68.8669 7.09411L68.9795 7.65714L68.4731 7.43192L67.9667 7.65714L68.023 7.09411L67.6292 6.69999L68.1918 6.64369L68.4731 6.13696Z" fill="url(#paint8_radial_23_411)"/>
<defs>
<radialGradient id="paint0_radial_23_411" cx="0" cy="0" r="1" gradientUnits="userSpaceOnUse" gradientTransform="translate(9.52036 14.842) scale(46.361 46.3929)">
<stop stop-color="#0086CC"/>
<stop offset="0.9995" stop-color="#0062AF"/>
</radialGradient>
<radialGradient id="paint1_radial_23_411" cx="0" cy="0" r="1" gradientUnits="userSpaceOnUse" gradientTransform="translate(55.4731 40.5726) scale(43.6776 43.7076)">
<stop stop-color="#FDB913"/>
<stop offset="0.9995" stop-color="#F15623"/>
</radialGradient>
<radialGradient id="paint2_radial_23_411" cx="0" cy="0" r="1" gradientUnits="userSpaceOnUse" gradientTransform="translate(61.0248 40.7642) scale(42.0176 42.0465)">
<stop stop-color="#B2D33E"/>
<stop offset="0.9995" stop-color="#62B16B"/>
</radialGradient>
<radialGradient id="paint3_radial_23_411" cx="0" cy="0" r="1" gradientUnits="userSpaceOnUse" gradientTransform="translate(18.403 41.7583) scale(53.8249 53.8619)">
<stop stop-color="#B95AA2"/>
<stop offset="0.6853" stop-color="#6A2C91"/>
<stop offset="1" stop-color="#2F2956"/>
</radialGradient>
<radialGradient id="paint4_radial_23_411" cx="0" cy="0" r="1" gradientUnits="userSpaceOnUse" gradientTransform="translate(17.5482 13.9993) rotate(7.30125) scale(25.041 25.0577)">
<stop stop-color="#AFD89F"/>
<stop offset="0.9995" stop-color="#0093B2"/>
</radialGradient>
<radialGradient id="paint5_radial_23_411" cx="0" cy="0" r="1" gradientUnits="userSpaceOnUse" gradientTransform="translate(82.7657 7.20126) scale(14.2671 14.277)">
<stop stop-color="#6A2C91"/>
<stop offset="0.1458" stop-color="#5E2B81"/>
<stop offset="0.4142" stop-color="#4A2B6E"/>
<stop offset="0.6557" stop-color="#3C2A60"/>
<stop offset="0.8592" stop-color="#322958"/>
<stop offset="1" stop-color="#2F2956"/>
</radialGradient>
<radialGradient id="paint6_radial_23_411" cx="0" cy="0" r="1" gradientUnits="userSpaceOnUse" gradientTransform="translate(75.5348 1.05027) scale(3.46624 3.46863)">
<stop stop-color="#6A2C91"/>
<stop offset="0.1458" stop-color="#5E2B81"/>
<stop offset="0.4142" stop-color="#4A2B6E"/>
<stop offset="0.6557" stop-color="#3C2A60"/>
<stop offset="0.8592" stop-color="#322958"/>
<stop offset="1" stop-color="#2F2956"/>
</radialGradient>
<radialGradient id="paint7_radial_23_411" cx="0" cy="0" r="1" gradientUnits="userSpaceOnUse" gradientTransform="translate(59.6277 7.43513) scale(1.3411 1.34203)">
<stop stop-color="#0086CC"/>
<stop offset="0.9995" stop-color="#0062AF"/>
</radialGradient>
<radialGradient id="paint8_radial_23_411" cx="0" cy="0" r="1" gradientUnits="userSpaceOnUse" gradientTransform="translate(68.4505 6.90094) scale(0.797424 0.797979)">
<stop stop-color="#6A2C91"/>
<stop offset="0.1458" stop-color="#5E2B81"/>
<stop offset="0.4142" stop-color="#4A2B6E"/>
<stop offset="0.6557" stop-color="#3C2A60"/>
<stop offset="0.8592" stop-color="#322958"/>
<stop offset="1" stop-color="#2F2956"/>
</radialGradient>
</defs>
</svg>
