<svg width="329" height="247" viewBox="0 0 329 247" fill="none" xmlns="http://www.w3.org/2000/svg">
<path d="M58.451 -54.4449H273.29C299.588 -54.4449 321.032 -33.0015 321.032 -6.70298V208.136C321.032 234.434 299.588 255.878 273.29 255.878H58.451C32.1524 255.473 10.709 234.03 10.709 207.731V-6.70298C10.709 -33.0015 32.1524 -54.4449 58.451 -54.4449Z" fill="#BAF5FF"/>
<path d="M320.628 124.79V30.5195C296.757 33.7563 292.306 58.0318 292.306 58.0318C292.306 58.0318 287.047 54.7951 276.932 58.841C276.932 58.841 277.741 51.1538 290.688 50.3446C291.092 46.2987 293.115 43.0619 293.115 43.0619C212.601 29.7103 207.342 105.774 207.342 105.774C194.395 104.56 191.158 117.102 191.158 117.102C191.158 117.102 273.695 122.767 320.628 124.79Z" fill="#CFF8FF"/>
<path d="M10.709 59.65V114.675H156.362C156.362 114.675 154.339 111.033 148.271 103.751C142.202 96.0634 123.186 89.9945 103.765 94.0404C84.3449 98.0864 64.9244 79.0705 57.6418 71.3832C49.9545 63.696 24.4651 61.673 10.709 59.65Z" fill="white"/>
<path d="M10.709 59.65V114.675H149.889C149.889 114.675 147.866 111.033 141.797 103.751C135.728 96.0634 116.712 89.9945 97.2919 94.0404C77.8714 98.0864 59.6647 80.6889 51.1683 71.3832C44.6948 65.3143 24.4651 61.673 10.709 59.65ZM156.362 114.675C156.362 114.675 160.813 106.987 164.454 106.178C168.096 104.964 179.829 107.392 179.829 107.392L186.707 117.911L156.362 114.675Z" fill="#6AA4D9"/>
<path d="M10.709 59.65V80.6889C22.0376 81.0935 37.0075 81.498 40.2443 80.6889C43.8856 79.8797 47.9315 74.62 50.3591 70.9786C44.6948 64.9097 24.0606 61.2684 10.709 59.65Z" fill="#87B9E8"/>
<path d="M58.451 255.473H273.29C299.588 255.473 321.032 234.03 321.032 207.731V112.247H10.709V207.731C10.709 234.03 32.1524 255.473 58.451 255.473Z" fill="#57DBF2"/>
<path d="M58.4512 255.473H273.29C299.589 255.473 321.032 234.03 321.032 207.731V173.746C291.092 168.486 232.426 177.792 215.433 178.601C194.799 179.41 200.868 177.792 179.02 167.677C157.172 157.562 94.0553 173.341 88.391 172.532C82.7267 171.723 132.492 153.111 63.7109 158.776C41.0537 160.394 23.6562 159.585 11.1138 157.562V207.731C10.7092 234.03 32.1526 255.473 58.4512 255.473Z" fill="white"/>
<path d="M273.29 112.247H151.103H55.2142H10.709V129.24C13.5411 129.24 16.7779 129.24 20.0146 129.645C52.7867 132.072 97.6965 132.072 62.0923 123.98C15.1595 113.056 164.05 117.911 167.286 117.911C198.44 119.125 154.744 125.194 143.011 125.599C131.278 126.003 113.88 128.026 145.843 133.286C177.806 138.95 158.79 142.996 102.956 146.233C47.1223 149.47 122.377 153.516 186.302 154.729C250.228 155.943 265.603 152.706 229.594 142.187C193.585 132.072 161.218 131.263 283 128.835C338.834 128.026 314.963 120.339 273.29 112.247ZM275.717 133.691C287.855 133.691 297.97 135.309 297.97 137.737C297.97 140.164 287.855 141.782 275.717 141.782C263.58 141.782 253.465 140.164 253.465 137.737C253.465 135.309 263.58 133.691 275.717 133.691ZM118.331 131.263C123.186 131.263 126.827 132.072 126.827 133.286C126.827 134.5 123.186 135.309 118.331 135.309C113.476 135.309 109.834 134.5 109.834 133.286C109.834 132.477 113.476 131.263 118.331 131.263Z" fill="#88FCFC"/>
<path d="M28.9158 131.668C28.9158 131.668 58.8556 134.5 74.2302 129.645C74.2302 129.645 63.7108 144.615 28.9158 131.668ZM179.829 143.806H233.235C233.235 143.806 207.746 153.921 179.829 143.806ZM237.686 129.645H311.322C311.726 129.645 275.313 119.126 237.686 129.645ZM79.0853 121.958H90.0093C90.0093 121.958 83.5358 114.675 79.0853 121.958Z" fill="white"/>
<path d="M58.451 255.474H273.29C299.588 255.474 321.032 234.03 321.032 207.732V198.83C299.184 195.998 254.274 189.929 226.357 185.884C193.99 181.028 158.79 185.074 129.659 185.479C130.873 182.242 131.682 179.005 129.255 179.005C124.804 178.601 124.4 183.861 124.4 183.861C124.4 183.861 123.59 176.578 119.544 177.792C117.117 178.601 118.331 182.242 119.544 185.479C117.926 185.479 116.308 185.479 114.689 185.074C92.8414 183.456 40.2443 170.914 10.709 163.226V207.732C10.709 234.03 32.1524 255.474 58.451 255.474Z" fill="#E3D24F"/>
<path d="M165.668 183.86C165.668 183.86 211.792 181.433 232.022 188.311C232.022 188.311 229.594 193.166 209.769 190.334C189.944 187.502 165.668 183.86 165.668 183.86Z" fill="#F2E585"/>
<path d="M228.38 255.473H272.886C299.184 255.473 320.628 234.03 320.628 207.731V198.83L306.062 196.807C314.559 203.685 313.749 209.35 293.115 210.968C255.488 214.205 237.281 236.862 228.38 255.473Z" fill="#C4A337"/>
<path d="M58.451 255.473H128.446C130.064 251.427 135.728 248.595 142.202 248.595C148.675 248.595 154.339 251.427 155.958 255.473H165.263C168.905 215.014 148.675 221.487 107.002 204.495C91.6276 198.021 88.7954 191.548 91.223 185.883C69.375 185.883 51.5729 183.86 36.6029 181.028C36.6029 176.578 34.9846 170.104 25.2743 172.127C25.6789 165.654 23.656 157.562 10.709 155.539V174.555V178.196V208.136C10.709 234.03 32.1524 255.473 58.451 255.473Z" fill="#C4A337"/>
<path d="M264.666 30.2164C265.257 69.8705 267.618 162.69 278.54 255.216H292.708C300.088 255.216 307.172 252.867 312.781 248.754C313.076 248.461 313.371 248.167 313.666 247.873C299.498 200.876 285.624 97.7752 285.624 30.5102L264.666 30.2164Z" fill="#6E284B"/>
<path d="M279.346 255.216H292.477C299.938 255.216 307.101 252.86 312.771 248.736C313.069 248.441 313.368 248.147 313.666 247.852C306.504 224.581 299.64 187.17 294.268 147.402C291.283 169.201 288.598 184.224 282.032 157.418C275.168 127.371 278.152 212.503 279.346 255.216ZM284.121 141.216C285.315 141.216 286.508 142.689 286.508 144.457C286.508 146.224 285.315 147.697 284.121 147.697C282.927 147.697 281.733 146.224 281.733 144.457C281.733 142.689 282.927 141.216 284.121 141.216Z" fill="#4A283E"/>
<path d="M264.666 49.0293C265.564 94.7835 268.854 175.147 278.427 255.216H279.025C277.829 239.965 276.632 224.127 275.735 207.996C293.085 212.689 299.666 202.13 299.666 202.13C288.598 206.823 278.427 203.596 275.435 202.423C274.538 186.878 273.94 171.334 273.341 156.082C285.307 158.135 292.188 149.63 292.188 149.63C285.008 154.029 277.53 152.856 273.341 151.683C272.743 137.311 272.444 123.526 272.145 110.328C281.418 112.088 286.504 106.809 286.504 106.809C280.222 108.568 274.837 107.395 272.145 106.515C271.846 92.1438 271.547 78.6522 271.247 66.627C278.427 66.627 284.709 58.4148 284.709 58.4148C279.324 61.641 274.538 62.2276 271.247 62.2276C271.247 56.0684 270.948 50.4958 270.948 45.2164C268.555 46.3896 266.461 47.5628 264.666 49.0293Z" fill="#A63F73"/>
<path d="M202.939 83.2164C202.939 83.2164 198.8 52.7192 222.747 30.2164H274.188L275.666 34.0656L231.025 64.2667L223.043 54.1997C223.043 54.1997 225.408 62.4902 226.886 66.9315L202.939 83.2164Z" fill="#4A283E"/>
<path d="M202.945 83.2164C202.945 83.2164 198.721 52.7192 223.158 30.2164H224.666C212.901 45.6131 211.09 65.155 211.392 77.8868L202.945 83.2164Z" fill="#6E284B"/>
<path d="M276.666 30.2164L309.978 52.3019L318.528 41.5498C312.042 34.5754 302.903 30.2164 292.585 30.2164H276.666ZM318.822 41.8404C318.233 44.1651 315.874 51.1395 314.695 55.4985L327.666 64.2164C327.371 55.4985 324.129 47.9429 318.822 41.8404Z" fill="#4A283E"/>
<path d="M211.525 222.332C213.953 216.263 219.212 209.789 230.136 212.622C230.136 212.622 232.159 168.926 292.039 176.208C310.65 178.231 321.17 183.491 327.239 189.964C320.765 208.576 302.963 222.332 281.924 222.332H211.525ZM177.944 222.332H202.219C201.815 215.858 196.555 211.003 190.082 211.003C183.608 211.003 178.348 215.858 177.944 222.332ZM329.666 161.643C322.788 163.666 318.742 173.376 328.452 184.705C329.262 181.468 329.666 178.231 329.666 174.995V161.643Z" fill="#4A283E"/>
<path d="M263.984 -19.2456C263.984 -19.2456 260.343 -6.29863 234.044 -3.87107C233.64 -3.87107 258.32 5.43456 263.984 -19.2456Z" fill="#4A283E"/>
<path d="M290.666 103.216C290.666 103.216 286.123 111.617 267.666 109.01C267.666 108.72 282.716 119.438 290.666 103.216Z" fill="#4A283E"/>
<path d="M294.666 147.216C294.666 147.216 289.247 157.319 266.666 154.257C266.666 154.257 285.333 166.808 294.666 147.216Z" fill="#4A283E"/>
<path d="M286.642 178.196C282.191 182.647 270.863 190.738 245.778 189.12C245.778 189.12 273.29 204.899 287.047 179.814L286.642 178.196Z" fill="#4A283E"/>
<path d="M226.495 147.887C238.228 159.216 253.198 178.232 264.931 206.553H264.122C252.389 178.636 237.419 160.025 226.09 148.696L226.495 147.887Z" fill="#4A283E"/>
<path d="M254.412 185.11C254.412 185.11 251.58 164.475 260.076 167.308C268.573 169.735 260.886 183.491 254.412 185.11Z" fill="#4A283E"/>
<path d="M250.77 179.041C250.77 179.041 232.159 169.331 232.564 178.232C233.373 187.537 251.579 182.278 250.77 179.041Z" fill="#4A283E"/>
<path d="M245.511 170.949C245.511 170.949 241.87 152.742 249.961 155.17C258.053 157.597 253.603 169.331 245.511 170.949Z" fill="#4A283E"/>
<path d="M241.869 166.094C241.869 166.094 229.327 159.621 227.709 166.499C226.09 173.377 242.679 172.163 241.869 166.094Z" fill="#4A283E"/>
<path d="M236.205 158.406C236.205 158.406 232.159 147.078 238.228 146.269C244.297 145.864 243.083 158.002 236.205 158.406Z" fill="#4A283E"/>
<path d="M231.35 153.551C231.35 153.551 219.617 148.292 220.021 154.361C220.021 160.43 232.564 158.002 231.35 153.551Z" fill="#4A283E"/>
<path d="M262.504 201.293C262.504 201.293 259.672 180.659 268.168 183.491C276.665 185.919 268.978 199.675 262.504 201.293Z" fill="#4A283E"/>
<path d="M259.672 195.225C259.672 195.225 241.061 185.514 241.465 194.416C241.87 203.721 260.077 198.461 259.672 195.225Z" fill="#4A283E"/>
<path d="M132.564 225.345C127.304 211.589 113.548 203.497 96.1502 205.52C96.5548 199.451 101.005 195 101.005 195C94.9364 195 91.6997 197.023 90.0813 199.856C88.0583 172.343 39.9118 174.366 23.3235 180.84C23.3235 180.84 20.8959 158.992 0.66626 157.778V178.008C0.66626 204.306 22.1097 225.75 48.4082 225.75H132.564V225.345Z" fill="#6B6B1E"/>
<path d="M13.1372 222.701C18.8015 239.694 33.7714 252.641 51.9781 255.069C54.0011 251.023 58.4516 246.977 67.7573 246.572C78.2767 246.168 79.895 251.832 84.7502 255.473H58.4516C56.4286 255.473 54.8103 255.473 52.7873 255.069C55.2149 243.74 52.7873 225.129 13.1372 222.701ZM107.812 255.473H127.232C125.614 253.046 120.354 251.832 107.812 255.473Z" fill="#4A283E"/>
<path d="M76.325 145.64C64.5918 156.969 49.6219 175.985 37.8887 204.306H38.6979C50.4311 176.389 65.401 157.778 76.7296 146.449L76.325 145.64Z" fill="#6B6B1E"/>
<path d="M48.8132 182.863C48.8132 182.863 51.6453 162.228 43.1489 165.061C34.6524 167.488 41.9351 181.244 48.8132 182.863Z" fill="#6B6B1E"/>
<path d="M52.0503 176.794C52.0503 176.794 70.6616 167.084 70.257 175.985C69.8524 185.29 51.6458 180.031 52.0503 176.794Z" fill="#6B6B1E"/>
<path d="M57.7147 168.702C57.7147 168.702 61.356 150.495 53.2642 152.923C45.1723 155.35 49.6228 167.083 57.7147 168.702Z" fill="#6B6B1E"/>
<path d="M60.9508 163.847C60.9508 163.847 73.4932 157.373 75.1116 164.251C76.7299 170.725 60.5462 169.916 60.9508 163.847Z" fill="#6B6B1E"/>
<path d="M67.0197 156.159C67.0197 156.159 71.0656 144.831 64.9967 144.022C58.9278 143.617 60.1416 155.755 67.0197 156.159Z" fill="#6B6B1E"/>
<path d="M71.8749 150.9C71.8749 150.9 83.6081 145.64 83.2035 151.709C83.2035 157.778 70.2565 155.755 71.8749 150.9Z" fill="#6B6B1E"/>
<path d="M40.7214 199.046C40.7214 199.046 43.5535 178.412 35.0571 181.244C26.5606 183.672 33.8433 197.428 40.7214 199.046Z" fill="#6B6B1E"/>
<path d="M43.5534 192.978C43.5534 192.978 62.1647 183.267 61.7601 192.168C60.9509 201.474 43.1488 196.214 43.5534 192.978Z" fill="#6B6B1E"/>
<path d="M122.377 238.481C127.232 239.29 130.874 241.717 130.469 244.145C130.064 246.572 126.018 248.191 121.163 247.382C116.308 246.572 112.667 244.145 113.071 241.717C113.071 239.29 117.522 237.671 122.377 238.481ZM109.026 238.481C110.239 238.481 111.453 239.694 111.453 240.503C111.453 241.313 110.239 241.717 108.621 241.717C107.407 241.717 106.193 240.503 106.193 239.694C106.193 238.885 107.407 238.481 109.026 238.481Z" fill="#8C8C2F"/>
</svg>
