<?xml version="1.0" encoding="UTF-8" ?>
<!DOCTYPE svg PUBLIC "-//W3C//DTD SVG 1.1//EN" "http://www.w3.org/Graphics/SVG/1.1/DTD/svg11.dtd">
<svg width="310pt" height="180pt" viewBox="0 0 310 180" version="1.1" xmlns="http://www.w3.org/2000/svg">
<g id="#baf5ffff">
<path fill="#baf5ff" opacity="1.00" d=" M 0.00 0.00 L 184.91 0.00 C 181.20 13.08 181.94 27.44 186.47 40.23 C 189.04 37.50 191.81 34.92 193.87 31.77 C 194.98 30.25 196.24 28.85 197.49 27.43 C 197.20 33.64 195.54 39.72 195.88 45.97 C 195.49 50.82 196.67 55.85 195.69 60.59 C 191.09 62.50 186.82 65.42 184.82 70.19 C 181.43 71.13 178.03 72.06 174.66 73.08 C 172.90 71.81 171.55 69.21 169.07 69.47 C 164.88 69.82 160.63 70.34 156.60 71.59 C 153.26 72.83 152.07 76.49 150.70 79.44 C 149.37 79.79 148.06 80.20 146.74 80.58 C 141.11 73.49 131.98 69.61 122.98 69.61 C 118.82 69.77 114.09 68.99 110.47 71.45 C 106.27 72.19 101.97 72.44 97.89 73.75 C 92.59 75.13 87.82 77.92 82.69 79.77 C 79.25 78.68 75.60 78.92 72.08 78.24 C 65.51 77.09 59.27 74.59 53.26 71.77 C 47.31 68.97 41.92 64.40 35.09 63.99 C 27.97 63.54 20.68 63.41 13.69 65.01 C 9.15 65.58 4.58 66.00 0.00 66.05 L 0.00 0.00 Z" />
</g>
<g id="#6e284bff">
<path fill="#6e284b" opacity="1.00" d=" M 184.91 0.00 L 189.90 0.00 C 189.28 10.63 189.41 21.93 193.87 31.77 C 191.81 34.92 189.04 37.50 186.47 40.23 C 181.94 27.44 181.20 13.08 184.91 0.00 Z" />
<path fill="#6e284b" opacity="1.00" d=" M 256.26 0.00 L 262.64 0.00 C 267.19 15.39 273.12 30.35 278.60 45.43 C 279.02 46.57 279.43 47.70 279.86 48.84 C 281.09 52.02 282.36 55.19 283.62 58.36 C 284.06 59.48 284.50 60.60 284.95 61.72 C 285.72 63.67 286.47 65.62 287.24 67.58 C 287.78 68.92 288.32 70.27 288.87 71.62 C 290.00 74.58 291.18 77.53 292.51 80.42 C 291.45 87.87 294.46 95.39 292.64 102.81 C 291.05 104.07 289.73 102.38 288.64 101.34 C 286.18 98.61 284.32 95.39 282.83 92.05 C 286.57 89.20 289.98 85.76 291.15 81.04 C 289.95 82.07 288.79 83.15 287.56 84.14 C 282.57 85.80 277.70 88.37 272.26 87.83 C 268.41 74.97 264.46 62.14 260.85 49.22 C 266.98 49.73 274.27 46.54 275.27 39.87 C 274.26 40.58 273.26 41.30 272.27 42.04 C 268.29 43.44 264.18 44.73 259.90 44.55 C 259.17 43.34 258.67 42.02 258.32 40.66 C 255.16 29.34 251.70 18.11 248.49 6.80 C 251.41 4.93 254.10 2.73 256.26 0.00 M 279.30 75.33 C 277.03 77.78 279.54 82.28 282.84 80.83 C 283.81 78.33 282.78 74.02 279.30 75.33 Z" />
<path fill="#6e284b" opacity="1.00" d=" M 273.89 93.25 C 275.47 93.26 277.07 93.25 278.67 93.25 C 279.89 98.55 281.30 103.80 282.40 109.12 C 281.49 109.94 280.36 110.43 279.23 110.85 C 277.62 104.93 275.53 99.16 273.89 93.25 Z" />
</g>
<g id="#4a283eff">
<path fill="#4a283e" opacity="1.00" d=" M 189.90 0.00 L 221.37 0.00 C 217.16 4.77 213.01 9.60 208.85 14.41 C 205.43 12.01 202.11 9.47 198.73 7.02 C 200.85 10.78 203.21 14.41 205.54 18.05 C 202.89 21.21 200.16 24.29 197.49 27.43 C 196.24 28.85 194.98 30.25 193.87 31.77 C 189.41 21.93 189.28 10.63 189.90 0.00 Z" />
<path fill="#4a283e" opacity="1.00" d=" M 279.30 75.33 C 282.78 74.02 283.81 78.33 282.84 80.83 C 279.54 82.28 277.03 77.78 279.30 75.33 Z" />
<path fill="#4a283e" opacity="1.00" d=" M 287.56 84.14 C 288.79 83.15 289.95 82.07 291.15 81.04 C 289.98 85.76 286.57 89.20 282.83 92.05 C 284.32 95.39 286.18 98.61 288.64 101.34 C 289.73 102.38 291.05 104.07 292.64 102.81 C 294.46 95.39 291.45 87.87 292.51 80.42 C 295.52 87.37 298.42 94.38 301.54 101.30 C 302.42 102.78 302.56 104.92 303.99 105.96 C 305.99 105.90 307.99 105.64 310.00 105.46 L 310.00 180.00 L 301.04 180.00 L 301.56 179.10 C 298.62 171.83 295.64 164.55 293.14 157.11 C 292.84 156.80 292.24 156.16 291.93 155.84 C 285.99 157.37 280.08 159.02 274.15 160.57 C 259.75 164.46 245.36 168.35 230.95 172.15 C 231.61 168.60 232.53 164.85 235.22 162.25 C 238.01 159.14 242.30 158.19 246.30 157.96 C 244.91 148.80 246.74 139.25 251.36 131.23 C 253.87 127.11 257.22 123.64 260.98 120.65 C 260.58 118.84 260.13 117.04 259.72 115.24 C 259.38 112.46 258.78 109.03 261.18 106.95 C 264.58 105.22 268.75 108.08 268.70 111.86 C 268.65 113.10 268.58 114.35 268.49 115.60 C 270.91 114.14 273.53 113.10 276.13 112.02 C 277.15 111.61 278.19 111.22 279.23 110.85 C 280.36 110.43 281.49 109.94 282.40 109.12 C 281.30 103.80 279.89 98.55 278.67 93.25 C 277.07 93.25 275.47 93.26 273.89 93.25 C 272.42 93.19 270.97 93.07 269.52 92.90 C 268.61 92.71 267.70 92.51 266.80 92.29 C 267.38 92.14 268.53 91.85 269.11 91.70 C 275.71 90.63 282.39 88.55 287.56 84.14 Z" />
<path fill="#4a283e" opacity="1.00" d=" M 237.58 103.90 C 236.32 100.53 232.12 93.66 237.58 91.64 C 237.79 91.64 238.20 91.65 238.40 91.65 C 241.55 92.04 242.19 95.55 242.24 98.15 C 242.05 100.71 240.55 102.85 238.38 104.15 C 242.44 106.98 246.31 110.05 250.10 113.21 C 248.49 109.03 246.41 104.65 247.05 100.04 C 248.06 95.95 254.17 97.12 255.63 100.30 C 257.99 105.18 255.01 111.21 250.48 113.67 C 251.98 114.90 253.50 116.11 255.02 117.33 L 254.95 117.40 C 254.74 117.60 254.32 117.98 254.10 118.17 C 251.72 115.57 248.89 113.44 246.16 111.23 C 244.43 115.59 239.40 117.77 234.93 117.23 C 231.92 116.72 231.31 112.39 233.71 110.79 C 236.79 108.73 240.66 109.75 244.12 109.50 C 240.33 106.68 236.45 103.99 232.61 101.24 C 231.94 105.86 224.79 108.85 221.58 104.98 C 220.07 99.87 226.93 100.18 230.09 100.17 C 228.97 98.51 226.39 98.37 225.79 96.31 C 229.89 98.56 234.06 100.80 237.58 103.90 Z" />
<path fill="#4a283e" opacity="1.00" d=" M 239.47 122.33 C 241.07 118.34 246.22 119.06 249.72 119.01 C 252.03 119.50 254.75 118.88 256.51 120.89 C 256.17 120.16 255.48 118.71 255.14 117.98 L 258.20 119.91 C 255.97 124.87 250.21 127.43 245.03 127.54 C 241.99 127.79 239.56 125.28 239.47 122.33 Z" />
<path fill="#4a283e" opacity="1.00" d=" M 202.49 169.39 C 208.43 163.58 219.47 166.75 221.97 174.54 C 215.37 176.41 208.70 177.99 202.14 180.00 L 198.15 180.00 C 198.04 176.01 199.33 171.98 202.49 169.39 Z" />
</g>
<g id="#cff8ffff">
<path fill="#cff8ff" opacity="1.00" d=" M 221.37 0.00 L 239.90 0.00 C 245.09 17.07 250.18 34.16 255.68 51.14 C 232.15 57.78 208.47 63.97 184.82 70.19 C 186.82 65.42 191.09 62.50 195.69 60.59 C 196.67 55.85 195.49 50.82 195.88 45.97 C 195.54 39.72 197.20 33.64 197.49 27.43 C 200.16 24.29 202.89 21.21 205.54 18.05 C 203.21 14.41 200.85 10.78 198.73 7.02 C 202.11 9.47 205.43 12.01 208.85 14.41 C 213.01 9.60 217.16 4.77 221.37 0.00 Z" />
<path fill="#cff8ff" opacity="1.00" d=" M 262.64 0.00 L 298.20 0.00 C 301.56 12.48 304.75 25.02 308.31 37.45 C 298.42 40.14 288.50 42.76 278.60 45.43 C 273.12 30.35 267.19 15.39 262.64 0.00 Z" />
</g>
<g id="#a63f73ff">
<path fill="#a63f73" opacity="1.00" d=" M 239.90 0.00 L 246.88 0.00 C 246.27 3.06 250.34 1.98 250.97 0.00 L 256.26 0.00 C 254.10 2.73 251.41 4.93 248.49 6.80 C 251.70 18.11 255.16 29.34 258.32 40.66 C 258.67 42.02 259.17 43.34 259.90 44.55 C 264.18 44.73 268.29 43.44 272.27 42.04 C 268.00 45.90 262.14 46.77 256.82 48.35 C 258.16 48.67 259.49 48.97 260.85 49.22 C 264.46 62.14 268.41 74.97 272.26 87.83 C 277.70 88.37 282.57 85.80 287.56 84.14 C 282.39 88.55 275.71 90.63 269.11 91.70 C 267.49 87.25 266.07 82.74 264.54 78.26 C 263.91 76.37 263.27 74.48 262.67 72.58 C 262.18 71.07 261.68 69.57 261.19 68.07 C 260.73 66.66 260.27 65.25 259.81 63.84 C 258.45 59.60 257.07 55.37 255.68 51.14 C 250.18 34.16 245.09 17.07 239.90 0.00 Z" />
<path fill="#a63f73" opacity="1.00" d=" M 269.52 92.90 C 270.97 93.07 272.42 93.19 273.89 93.25 C 275.53 99.16 277.62 104.93 279.23 110.85 C 278.19 111.22 277.15 111.61 276.13 112.02 C 275.90 111.42 275.45 110.23 275.22 109.63 C 273.28 104.07 271.32 98.51 269.52 92.90 Z" />
</g>
<g id="#742a4fff">
<path fill="#742a4f" opacity="1.00" d=" M 246.88 0.00 L 250.97 0.00 C 250.34 1.98 246.27 3.06 246.88 0.00 Z" />
</g>
<g id="#2a3950ff">
<path fill="#2a3950" opacity="1.00" d=" M 298.20 0.00 L 310.00 0.00 L 310.00 42.66 C 309.32 40.95 308.81 39.20 308.31 37.45 C 304.75 25.02 301.56 12.48 298.20 0.00 Z" />
<path fill="#2a3950" opacity="1.00" d=" M 0.00 88.25 L 0.27 89.12 C 3.05 98.61 5.42 108.22 8.07 117.74 C 9.75 123.22 11.13 128.78 12.66 134.30 C 14.94 142.73 17.22 151.16 19.41 159.61 C 19.58 160.20 19.92 161.39 20.09 161.99 C 20.12 162.51 20.19 163.56 20.23 164.09 C 17.08 164.27 13.53 163.26 10.64 164.79 C 12.05 169.85 13.28 174.96 14.76 180.00 L 0.00 180.00 L 0.00 88.25 Z" />
</g>
<g id="#57dbf2ff">
<path fill="#57dbf2" opacity="1.00" d=" M 278.60 45.43 C 288.50 42.76 298.42 40.14 308.31 37.45 C 308.81 39.20 309.32 40.95 310.00 42.66 L 310.00 99.13 C 307.18 99.86 304.34 100.52 301.54 101.30 C 298.42 94.38 295.52 87.37 292.51 80.42 C 291.18 77.53 290.00 74.58 288.87 71.62 C 290.23 70.52 293.37 69.57 291.90 67.31 C 290.35 66.80 288.70 66.84 287.24 67.58 C 286.47 65.62 285.72 63.67 284.95 61.72 C 290.26 60.41 295.48 58.70 300.87 57.68 C 301.68 57.55 302.32 57.00 303.01 56.60 C 302.19 56.41 300.55 56.01 299.73 55.82 C 301.94 54.17 306.01 53.53 306.03 50.18 C 297.57 47.65 288.56 48.81 279.86 48.84 C 279.43 47.70 279.02 46.57 278.60 45.43 Z" />
<path fill="#57dbf2" opacity="1.00" d=" M 234.46 75.48 C 243.30 72.77 252.30 70.62 261.19 68.07 C 261.68 69.57 262.18 71.07 262.67 72.58 C 257.83 73.57 252.76 75.30 249.37 79.08 C 250.00 80.08 250.89 80.62 252.03 80.70 C 255.93 80.93 259.91 80.64 263.67 79.57 C 263.89 79.24 264.32 78.59 264.54 78.26 C 266.07 82.74 267.49 87.25 269.11 91.70 C 268.53 91.85 267.38 92.14 266.80 92.29 C 267.70 92.51 268.61 92.71 269.52 92.90 C 271.32 98.51 273.28 104.07 275.22 109.63 C 273.05 110.39 270.87 111.13 268.70 111.86 C 268.75 108.08 264.58 105.22 261.18 106.95 C 258.78 109.03 259.38 112.46 259.72 115.24 C 258.09 115.85 256.39 116.39 254.95 117.40 L 255.02 117.33 C 253.50 116.11 251.98 114.90 250.48 113.67 C 255.01 111.21 257.99 105.18 255.63 100.30 C 254.17 97.12 248.06 95.95 247.05 100.04 C 246.41 104.65 248.49 109.03 250.10 113.21 C 246.31 110.05 242.44 106.98 238.38 104.15 C 240.55 102.85 242.05 100.71 242.24 98.15 C 244.12 96.66 248.15 95.98 247.96 93.15 C 245.39 91.05 241.51 90.49 238.40 91.65 C 238.20 91.65 237.79 91.64 237.58 91.64 C 237.03 91.37 235.92 90.85 235.36 90.58 C 221.55 88.89 207.54 91.43 193.72 89.99 C 194.78 88.17 196.87 87.53 198.70 86.77 C 210.44 82.45 222.50 79.13 234.46 75.48 Z" />
<path fill="#57dbf2" opacity="1.00" d=" M 163.09 82.31 C 166.03 81.59 169.03 81.15 172.07 81.22 C 170.62 84.40 166.64 85.13 163.86 86.80 C 155.00 90.86 145.95 94.52 136.66 97.47 C 133.02 98.77 129.13 99.76 126.01 102.15 C 126.05 102.52 126.12 103.26 126.16 103.62 C 136.76 105.03 147.38 101.89 158.02 102.90 C 159.24 102.93 160.46 103.53 160.86 104.74 C 157.73 107.58 153.78 109.22 149.97 110.95 C 131.75 118.75 112.67 124.26 94.08 131.06 C 92.24 131.95 89.77 132.27 88.75 134.25 C 94.01 134.71 99.16 133.24 104.32 132.45 C 143.74 124.79 182.73 115.10 221.58 104.98 C 224.79 108.85 231.94 105.86 232.61 101.24 C 236.45 103.99 240.33 106.68 244.12 109.50 C 240.66 109.75 236.79 108.73 233.71 110.79 C 231.31 112.39 231.92 116.72 234.93 117.23 C 239.40 117.77 244.43 115.59 246.16 111.23 C 248.89 113.44 251.72 115.57 254.10 118.17 C 252.58 118.06 251.12 118.33 249.72 119.01 C 246.22 119.06 241.07 118.34 239.47 122.33 C 236.90 124.81 232.87 125.18 229.68 126.71 C 220.67 129.67 211.10 134.17 201.48 131.34 C 193.15 129.43 184.71 126.68 176.06 127.74 C 167.49 128.65 159.23 131.29 151.09 134.01 C 137.69 138.90 124.58 144.57 111.68 150.66 C 107.36 152.59 103.12 154.82 98.52 156.05 C 100.90 151.17 106.27 148.28 107.95 142.95 C 108.16 140.34 104.75 140.30 102.94 140.35 C 92.86 141.45 83.35 145.23 73.75 148.28 C 74.89 145.59 76.22 142.99 77.36 140.30 C 80.18 143.54 85.48 142.95 88.25 139.97 C 89.11 138.30 88.71 136.01 87.02 135.03 C 83.78 134.84 81.12 136.92 78.48 138.46 C 79.42 136.60 80.80 134.86 81.04 132.72 C 78.19 136.22 76.67 140.54 74.36 144.38 C 74.06 141.43 74.19 138.17 72.32 135.68 C 70.68 133.61 66.90 134.36 66.43 137.03 C 65.75 141.26 69.28 146.25 73.92 145.58 C 73.41 146.65 72.91 147.72 72.43 148.80 C 70.51 149.41 68.60 150.03 66.69 150.64 C 65.76 148.55 64.79 145.41 62.02 145.43 C 58.30 145.91 56.18 150.22 57.72 153.59 C 47.92 156.11 38.13 159.43 27.99 160.12 C 25.17 159.50 22.28 159.35 19.41 159.61 C 17.22 151.16 14.94 142.73 12.66 134.30 C 26.95 130.83 41.54 128.59 55.70 124.55 C 57.98 124.01 60.33 122.82 62.70 123.70 C 52.58 127.11 42.26 130.00 31.69 131.59 C 41.19 133.03 51.15 132.41 60.27 129.29 C 65.67 127.47 70.54 124.06 73.87 119.40 C 74.28 118.63 74.59 117.81 74.95 117.02 C 67.39 113.80 58.70 117.79 51.03 114.80 C 52.88 112.49 55.82 111.61 58.44 110.50 C 69.73 106.26 81.40 103.13 93.02 99.95 C 116.24 93.56 139.66 87.90 163.09 82.31 M 77.10 109.53 C 80.43 108.64 83.78 107.78 87.09 106.82 C 84.48 103.53 77.48 104.61 77.10 109.53 M 115.04 109.07 C 113.16 110.02 110.02 110.33 109.92 112.94 C 113.54 113.73 117.21 112.59 120.66 111.56 C 122.63 110.77 125.13 110.18 126.04 108.02 C 122.55 106.30 118.52 108.12 115.04 109.07 Z" />
</g>
<g id="#502941ff">
<path fill="#502941" opacity="1.00" d=" M 272.27 42.04 C 273.26 41.30 274.26 40.58 275.27 39.87 C 274.27 46.54 266.98 49.73 260.85 49.22 C 259.49 48.97 258.16 48.67 256.82 48.35 C 262.14 46.77 268.00 45.90 272.27 42.04 Z" />
</g>
<g id="#88fcfcff">
<path fill="#88fcfc" opacity="1.00" d=" M 279.86 48.84 C 288.56 48.81 297.57 47.65 306.03 50.18 C 306.01 53.53 301.94 54.17 299.73 55.82 C 300.55 56.01 302.19 56.41 303.01 56.60 C 302.32 57.00 301.68 57.55 300.87 57.68 C 295.23 56.07 289.32 57.95 283.62 58.36 C 282.36 55.19 281.09 52.02 279.86 48.84 Z" />
<path fill="#88fcfc" opacity="1.00" d=" M 255.68 51.14 C 257.07 55.37 258.45 59.60 259.81 63.84 C 251.15 66.53 242.66 69.99 234.78 74.46 C 234.70 74.72 234.54 75.22 234.46 75.48 C 222.50 79.13 210.44 82.45 198.70 86.77 C 196.87 87.53 194.78 88.17 193.72 89.99 C 207.54 91.43 221.55 88.89 235.36 90.58 C 235.92 90.85 237.03 91.37 237.58 91.64 C 232.12 93.66 236.32 100.53 237.58 103.90 C 234.06 100.80 229.89 98.56 225.79 96.31 C 226.39 98.37 228.97 98.51 230.09 100.17 C 226.93 100.18 220.07 99.87 221.58 104.98 C 182.73 115.10 143.74 124.79 104.32 132.45 C 99.16 133.24 94.01 134.71 88.75 134.25 C 89.77 132.27 92.24 131.95 94.08 131.06 C 112.67 124.26 131.75 118.75 149.97 110.95 C 153.78 109.22 157.73 107.58 160.86 104.74 C 160.46 103.53 159.24 102.93 158.02 102.90 C 147.38 101.89 136.76 105.03 126.16 103.62 C 126.12 103.26 126.05 102.52 126.01 102.15 C 129.13 99.76 133.02 98.77 136.66 97.47 C 145.95 94.52 155.00 90.86 163.86 86.80 C 166.64 85.13 170.62 84.40 172.07 81.22 C 169.03 81.15 166.03 81.59 163.09 82.31 C 139.66 87.90 116.24 93.56 93.02 99.95 C 81.40 103.13 69.73 106.26 58.44 110.50 C 55.82 111.61 52.88 112.49 51.03 114.80 C 58.70 117.79 67.39 113.80 74.95 117.02 C 74.59 117.81 74.28 118.63 73.87 119.40 C 69.86 119.68 66.66 122.90 62.70 123.70 C 60.33 122.82 57.98 124.01 55.70 124.55 C 41.54 128.59 26.95 130.83 12.66 134.30 C 11.13 128.78 9.75 123.22 8.07 117.74 C 51.12 106.43 94.06 94.69 137.09 83.31 C 138.39 83.00 139.59 82.40 140.75 81.75 C 142.81 81.77 144.78 81.12 146.74 80.58 C 148.06 80.20 149.37 79.79 150.70 79.44 C 158.76 77.61 166.72 75.38 174.66 73.08 C 178.03 72.06 181.43 71.13 184.82 70.19 C 208.47 63.97 232.15 57.78 255.68 51.14 M 220.03 93.77 C 207.02 97.43 193.82 100.47 180.93 104.50 C 198.46 105.79 216.20 100.60 230.98 91.23 C 227.21 91.46 223.68 92.97 220.03 93.77 Z" />
<path fill="#88fcfc" opacity="1.00" d=" M 287.24 67.58 C 288.70 66.84 290.35 66.80 291.90 67.31 C 293.37 69.57 290.23 70.52 288.87 71.62 C 288.32 70.27 287.78 68.92 287.24 67.58 Z" />
<path fill="#88fcfc" opacity="1.00" d=" M 249.37 79.08 C 252.76 75.30 257.83 73.57 262.67 72.58 C 263.27 74.48 263.91 76.37 264.54 78.26 C 264.32 78.59 263.89 79.24 263.67 79.57 C 259.91 80.64 255.93 80.93 252.03 80.70 C 250.89 80.62 250.00 80.08 249.37 79.08 Z" />
<path fill="#88fcfc" opacity="1.00" d=" M 238.40 91.65 C 241.51 90.49 245.39 91.05 247.96 93.15 C 248.15 95.98 244.12 96.66 242.24 98.15 C 242.19 95.55 241.55 92.04 238.40 91.65 Z" />
<path fill="#88fcfc" opacity="1.00" d=" M 115.04 109.07 C 118.52 108.12 122.55 106.30 126.04 108.02 C 125.13 110.18 122.63 110.77 120.66 111.56 C 117.21 112.59 113.54 113.73 109.92 112.94 C 110.02 110.33 113.16 110.02 115.04 109.07 Z" />
</g>
<g id="#ffffffff">
<path fill="#ffffff" opacity="1.00" d=" M 283.62 58.36 C 289.32 57.95 295.23 56.07 300.87 57.68 C 295.48 58.70 290.26 60.41 284.95 61.72 C 284.50 60.60 284.06 59.48 283.62 58.36 Z" />
<path fill="#ffffff" opacity="1.00" d=" M 13.69 65.01 C 20.68 63.41 27.97 63.54 35.09 63.99 C 41.92 64.40 47.31 68.97 53.26 71.77 C 59.27 74.59 65.51 77.09 72.08 78.24 C 75.60 78.92 79.25 78.68 82.69 79.77 C 66.24 83.86 49.93 76.01 36.25 67.53 C 29.22 64.25 21.23 65.13 13.69 65.01 Z" />
<path fill="#ffffff" opacity="1.00" d=" M 234.78 74.46 C 242.66 69.99 251.15 66.53 259.81 63.84 C 260.27 65.25 260.73 66.66 261.19 68.07 C 252.30 70.62 243.30 72.77 234.46 75.48 C 234.54 75.22 234.70 74.72 234.78 74.46 Z" />
<path fill="#ffffff" opacity="1.00" d=" M 110.47 71.45 C 114.09 68.99 118.82 69.77 122.98 69.61 C 131.98 69.61 141.11 73.49 146.74 80.58 C 144.78 81.12 142.81 81.77 140.75 81.75 C 136.35 78.15 131.85 74.22 126.23 72.71 C 121.11 71.35 115.74 70.93 110.47 71.45 Z" />
<path fill="#ffffff" opacity="1.00" d=" M 220.03 93.77 C 223.68 92.97 227.21 91.46 230.98 91.23 C 216.20 100.60 198.46 105.79 180.93 104.50 C 193.82 100.47 207.02 97.43 220.03 93.77 Z" />
<path fill="#ffffff" opacity="1.00" d=" M 301.54 101.30 C 304.34 100.52 307.18 99.86 310.00 99.13 L 310.00 105.46 C 307.99 105.64 305.99 105.90 303.99 105.96 C 302.56 104.92 302.42 102.78 301.54 101.30 Z" />
<path fill="#ffffff" opacity="1.00" d=" M 268.70 111.86 C 270.87 111.13 273.05 110.39 275.22 109.63 C 275.45 110.23 275.90 111.42 276.13 112.02 C 273.53 113.10 270.91 114.14 268.49 115.60 C 268.58 114.35 268.65 113.10 268.70 111.86 Z" />
<path fill="#ffffff" opacity="1.00" d=" M 254.95 117.40 C 256.39 116.39 258.09 115.85 259.72 115.24 C 260.13 117.04 260.58 118.84 260.98 120.65 C 257.22 123.64 253.87 127.11 251.36 131.23 C 246.02 131.81 240.72 132.69 235.36 133.09 C 216.81 135.45 198.52 139.84 180.78 145.72 C 168.10 150.02 155.26 153.88 142.43 157.72 C 142.34 155.83 142.52 153.87 141.85 152.07 C 138.71 150.38 136.66 154.22 136.50 156.85 C 135.24 154.71 133.08 151.06 130.18 153.18 C 128.69 155.80 131.63 158.08 132.07 160.60 C 115.71 163.41 99.13 164.61 82.57 165.30 C 82.64 163.25 81.34 160.81 78.96 161.21 C 75.24 161.67 72.11 163.98 69.17 166.13 C 68.60 166.08 67.47 166.00 66.90 165.95 C 68.04 162.46 69.40 159.04 70.54 155.55 C 73.92 159.01 79.82 157.99 83.33 155.28 C 86.31 152.96 82.98 148.66 79.90 149.35 C 76.59 149.88 73.77 151.90 71.17 153.88 C 72.05 152.01 72.92 150.16 73.75 148.28 C 83.35 145.23 92.86 141.45 102.94 140.35 C 104.75 140.30 108.16 140.34 107.95 142.95 C 106.27 148.28 100.90 151.17 98.52 156.05 C 103.12 154.82 107.36 152.59 111.68 150.66 C 124.58 144.57 137.69 138.90 151.09 134.01 C 159.23 131.29 167.49 128.65 176.06 127.74 C 184.71 126.68 193.15 129.43 201.48 131.34 C 211.10 134.17 220.67 129.67 229.68 126.71 C 232.87 125.18 236.90 124.81 239.47 122.33 C 239.56 125.28 241.99 127.79 245.03 127.54 C 250.21 127.43 255.97 124.87 258.20 119.91 L 255.14 117.98 C 255.48 118.71 256.17 120.16 256.51 120.89 C 254.75 118.88 252.03 119.50 249.72 119.01 C 251.12 118.33 252.58 118.06 254.10 118.17 C 254.32 117.98 254.74 117.60 254.95 117.40 Z" />
<path fill="#ffffff" opacity="1.00" d=" M 62.70 123.70 C 66.66 122.90 69.86 119.68 73.87 119.40 C 70.54 124.06 65.67 127.47 60.27 129.29 C 51.15 132.41 41.19 133.03 31.69 131.59 C 42.26 130.00 52.58 127.11 62.70 123.70 Z" />
<path fill="#ffffff" opacity="1.00" d=" M 27.99 160.12 C 38.13 159.43 47.92 156.11 57.72 153.59 C 59.63 157.39 63.58 160.12 67.90 160.13 C 67.25 162.09 66.61 164.06 65.97 166.03 C 64.39 166.18 62.80 166.28 61.22 166.31 C 60.30 163.93 59.21 161.31 56.94 159.94 C 53.23 158.81 50.09 162.99 50.98 166.46 C 46.13 166.89 41.26 166.66 36.40 166.84 C 34.53 163.67 31.64 161.02 27.99 160.12 Z" />
</g>
<g id="#87b9e8ff">
<path fill="#87b9e8" opacity="1.00" d=" M 0.00 66.05 C 4.58 66.00 9.15 65.58 13.69 65.01 C 21.23 65.13 29.22 64.25 36.25 67.53 C 34.17 72.48 32.33 78.75 26.63 80.61 C 19.07 82.99 11.29 84.67 3.59 86.54 C 2.04 86.74 0.95 87.75 0.27 89.12 L 0.00 88.25 L 0.00 66.05 Z" />
</g>
<g id="#6aa4d9ff">
<path fill="#6aa4d9" opacity="1.00" d=" M 36.25 67.53 C 49.93 76.01 66.24 83.86 82.69 79.77 C 87.82 77.92 92.59 75.13 97.89 73.75 C 101.97 72.44 106.27 72.19 110.47 71.45 C 115.74 70.93 121.11 71.35 126.23 72.71 C 131.85 74.22 136.35 78.15 140.75 81.75 C 139.59 82.40 138.39 83.00 137.09 83.31 C 94.06 94.69 51.12 106.43 8.07 117.74 C 5.42 108.22 3.05 98.61 0.27 89.12 C 0.95 87.75 2.04 86.74 3.59 86.54 C 11.29 84.67 19.07 82.99 26.63 80.61 C 32.33 78.75 34.17 72.48 36.25 67.53 Z" />
<path fill="#6aa4d9" opacity="1.00" d=" M 156.60 71.59 C 160.63 70.34 164.88 69.82 169.07 69.47 C 171.55 69.21 172.90 71.81 174.66 73.08 C 166.72 75.38 158.76 77.61 150.70 79.44 C 152.07 76.49 153.26 72.83 156.60 71.59 Z" />
</g>
<g id="#effcfeff">
<path fill="#effcfe" opacity="1.00" d=" M 77.10 109.53 C 77.48 104.61 84.48 103.53 87.09 106.82 C 83.78 107.78 80.43 108.64 77.10 109.53 Z" />
</g>
<g id="#e3d24fff">
<path fill="#e3d24f" opacity="1.00" d=" M 235.36 133.09 C 240.72 132.69 246.02 131.81 251.36 131.23 C 246.74 139.25 244.91 148.80 246.30 157.96 C 242.30 158.19 238.01 159.14 235.22 162.25 C 232.53 164.85 231.61 168.60 230.95 172.15 C 245.36 168.35 259.75 164.46 274.15 160.57 C 269.85 166.89 265.04 172.94 261.97 180.00 L 202.14 180.00 C 208.70 177.99 215.37 176.41 221.97 174.54 C 219.47 166.75 208.43 163.58 202.49 169.39 C 199.33 171.98 198.04 176.01 198.15 180.00 L 115.16 180.00 C 115.66 178.13 116.17 176.26 116.73 174.41 C 114.62 175.17 112.54 176.07 110.77 177.47 C 106.83 176.11 105.31 172.09 104.76 168.31 C 102.37 168.74 100.04 169.41 97.79 170.32 C 92.96 168.21 87.71 167.20 82.44 167.20 C 82.47 166.73 82.54 165.78 82.57 165.30 C 99.13 164.61 115.71 163.41 132.07 160.60 C 131.63 158.08 128.69 155.80 130.18 153.18 C 133.08 151.06 135.24 154.71 136.50 156.85 C 136.66 154.22 138.71 150.38 141.85 152.07 C 142.52 153.87 142.34 155.83 142.43 157.72 C 155.26 153.88 168.10 150.02 180.78 145.72 C 193.95 145.71 206.96 143.08 220.05 141.86 C 227.62 140.63 236.37 140.14 242.03 134.33 C 239.78 134.10 237.46 134.03 235.36 133.09 Z" />
<path fill="#e3d24f" opacity="1.00" d=" M 36.40 166.84 C 41.26 166.66 46.13 166.89 50.98 166.46 C 51.99 168.69 53.47 170.64 55.02 172.52 C 53.43 173.13 51.84 173.73 50.26 174.36 C 48.71 172.69 47.11 170.64 44.66 170.41 C 42.42 170.29 40.28 171.13 38.13 171.59 C 37.55 170.01 37.00 168.42 36.40 166.84 Z" />
</g>
<g id="#6b6b1eff">
<path fill="#6b6b1e" opacity="1.00" d=" M 74.36 144.38 C 76.67 140.54 78.19 136.22 81.04 132.72 C 80.80 134.86 79.42 136.60 78.48 138.46 C 81.12 136.92 83.78 134.84 87.02 135.03 C 88.71 136.01 89.11 138.30 88.25 139.97 C 85.48 142.95 80.18 143.54 77.36 140.30 C 76.22 142.99 74.89 145.59 73.75 148.28 C 72.92 150.16 72.05 152.01 71.17 153.88 C 73.77 151.90 76.59 149.88 79.90 149.35 C 82.98 148.66 86.31 152.96 83.33 155.28 C 79.82 157.99 73.92 159.01 70.54 155.55 C 69.40 159.04 68.04 162.46 66.90 165.95 L 65.97 166.03 C 66.61 164.06 67.25 162.09 67.90 160.13 C 63.58 160.12 59.63 157.39 57.72 153.59 C 56.18 150.22 58.30 145.91 62.02 145.43 C 64.79 145.41 65.76 148.55 66.69 150.64 C 67.51 153.44 67.97 156.33 68.44 159.21 C 69.53 155.65 70.91 152.20 72.43 148.80 C 72.91 147.72 73.41 146.65 73.92 145.58 C 69.28 146.25 65.75 141.26 66.43 137.03 C 66.90 134.36 70.68 133.61 72.32 135.68 C 74.19 138.17 74.06 141.43 74.36 144.38 Z" />
<path fill="#6b6b1e" opacity="1.00" d=" M 50.98 166.46 C 50.09 162.99 53.23 158.81 56.94 159.94 C 59.21 161.31 60.30 163.93 61.22 166.31 C 61.60 167.59 61.91 168.89 62.24 170.19 C 64.97 169.86 66.74 167.31 69.17 166.13 C 72.11 163.98 75.24 161.67 78.96 161.21 C 81.34 160.81 82.64 163.25 82.57 165.30 C 82.54 165.78 82.47 166.73 82.44 167.20 C 87.71 167.20 92.96 168.21 97.79 170.32 C 101.79 172.53 105.03 175.91 107.07 180.00 L 39.65 180.00 C 43.02 177.84 46.54 175.88 50.26 174.36 C 51.84 173.73 53.43 173.13 55.02 172.52 C 53.47 170.64 51.99 168.69 50.98 166.46 Z" />
<path fill="#6b6b1e" opacity="1.00" d=" M 10.64 164.79 C 13.53 163.26 17.08 164.27 20.23 164.09 L 21.00 164.22 C 28.55 167.02 34.60 172.79 38.13 180.00 L 14.76 180.00 C 13.28 174.96 12.05 169.85 10.64 164.79 Z" />
<path fill="#6b6b1e" opacity="1.00" d=" M 110.77 177.47 C 112.54 176.07 114.62 175.17 116.73 174.41 C 116.17 176.26 115.66 178.13 115.16 180.00 L 108.58 180.00 C 109.31 179.16 110.02 178.30 110.77 177.47 Z" />
</g>
<g id="#f2e585ff">
<path fill="#f2e585" opacity="1.00" d=" M 180.78 145.72 C 198.52 139.84 216.81 135.45 235.36 133.09 C 237.46 134.03 239.78 134.10 242.03 134.33 C 236.37 140.14 227.62 140.63 220.05 141.86 C 206.96 143.08 193.95 145.71 180.78 145.72 Z" />
</g>
<g id="#f2f9f8ff">
<path fill="#f2f9f8" opacity="1.00" d=" M 66.69 150.64 C 68.60 150.03 70.51 149.41 72.43 148.80 C 70.91 152.20 69.53 155.65 68.44 159.21 C 67.97 156.33 67.51 153.44 66.69 150.64 Z" />
</g>
<g id="#c4a337ff">
<path fill="#c4a337" opacity="1.00" d=" M 274.15 160.57 C 280.08 159.02 285.99 157.37 291.93 155.84 C 292.24 156.16 292.84 156.80 293.14 157.11 C 295.64 164.55 298.62 171.83 301.56 179.10 L 301.04 180.00 L 261.97 180.00 C 265.04 172.94 269.85 166.89 274.15 160.57 Z" />
<path fill="#c4a337" opacity="1.00" d=" M 19.41 159.61 C 22.28 159.35 25.17 159.50 27.99 160.12 C 31.64 161.02 34.53 163.67 36.40 166.84 C 37.00 168.42 37.55 170.01 38.13 171.59 C 40.28 171.13 42.42 170.29 44.66 170.41 C 47.11 170.64 48.71 172.69 50.26 174.36 C 46.54 175.88 43.02 177.84 39.65 180.00 L 38.13 180.00 C 34.60 172.79 28.55 167.02 21.00 164.22 C 20.77 163.66 20.32 162.55 20.09 161.99 C 19.92 161.39 19.58 160.20 19.41 159.61 Z" />
<path fill="#c4a337" opacity="1.00" d=" M 97.79 170.32 C 100.04 169.41 102.37 168.74 104.76 168.31 C 105.31 172.09 106.83 176.11 110.77 177.47 C 110.02 178.30 109.31 179.16 108.58 180.00 L 107.07 180.00 C 105.03 175.91 101.79 172.53 97.79 170.32 Z" />
</g>
<g id="#93a77eff">
<path fill="#93a77e" opacity="1.00" d=" M 20.09 161.99 C 20.32 162.55 20.77 163.66 21.00 164.22 L 20.23 164.09 C 20.19 163.56 20.12 162.51 20.09 161.99 Z" />
</g>
<g id="#c8bc4bff">
<path fill="#c8bc4b" opacity="1.00" d=" M 65.97 166.03 L 66.90 165.95 C 67.47 166.00 68.60 166.08 69.17 166.13 C 66.74 167.31 64.97 169.86 62.24 170.19 C 61.91 168.89 61.60 167.59 61.22 166.31 C 62.80 166.28 64.39 166.18 65.97 166.03 Z" />
</g>
</svg>
