<svg width="310" height="180" viewBox="0 0 310 180" fill="none" xmlns="http://www.w3.org/2000/svg">
<path d="M262.47 210.91H45.9219C19.4141 210.91 -2.19995 189.296 -2.19995 162.788L-2.19995 -227.488C-2.19995 -253.996 19.4141 -275.61 45.9219 -275.61H262.47C288.978 -275.61 310.592 -253.996 310.592 -227.488V162.788C310.592 189.296 288.978 210.91 262.47 210.91Z" fill="#C5E5ED"/>
<path d="M436 51.8331L434.859 44.6952H408.625C400.07 44.6952 392.656 50.4055 392.371 57.5434L391.801 69.2497H374.977L372.125 134.919H395.508C404.062 134.919 411.477 140.629 411.762 147.767L412.902 171.75H436V51.8331ZM363 96.6593L366.137 29.8483C366.422 22.7103 359.578 17 351.023 17H301.977C293.422 17 286.008 22.7103 285.723 29.8483L284.297 59.5421H258.062C249.508 59.5421 242.094 65.2524 241.809 72.3904L240.668 96.3738H217V199.16V127.21L218.141 120.072H244.945C253.5 120.072 260.914 125.782 261.199 132.92L261.77 144.626H278.594L282.301 224H292.852L287.434 105.225C287.148 98.0869 293.992 92.3765 302.547 92.3765H351.309C355.871 92.3765 360.148 94.0896 363 96.6593Z" fill="#9EC7D9"/>
<path d="M-2 51.8331L-0.859375 44.6952H25.375C33.9297 44.6952 41.3438 50.4055 41.6289 57.5434L42.1992 69.2497H59.0234L61.875 134.919H38.4922C29.9375 134.919 22.5234 140.629 22.2383 147.767L21.0977 171.75H-2L-2 51.8331ZM71 96.6593L67.8633 29.8483C67.5781 22.7103 74.4219 17 82.9766 17H132.023C140.578 17 147.992 22.7103 148.277 29.8483L149.703 59.5421H175.938C184.492 59.5421 191.906 65.2524 192.191 72.3904L193.332 96.3738H217V199.16V127.21L215.859 120.072H189.055C180.5 120.072 173.086 125.782 172.801 132.92L172.23 144.626H155.406L151.699 224H141.148L146.566 105.225C146.852 98.0869 140.008 92.3765 131.453 92.3765H82.6914C78.1289 92.3765 73.8516 94.0896 71 96.6593Z" fill="#9EC7D9"/>
<path d="M-5 156L-5 136.394C1.94624 136.394 8.07527 140.07 8.07527 140.07C8.07527 140.07 10.1183 127 27.2796 127C44.4409 127 44.4409 140.887 44.4409 140.887C64.871 134.761 71 149.873 71 149.873L-5 156Z" fill="#8C8C2F"/>
<path d="M312 138.193V159L205 148.809C205 148.809 210.412 136.92 221.237 141.59C221.237 141.59 242.054 124.181 272.031 125.03C302.008 125.879 296.179 147.96 296.179 147.96C296.179 147.96 301.591 139.892 312 138.193Z" fill="#8C8C2F"/>
<path d="M312 145V192.59C312 219.256 290.067 241 263.167 241H43.8329C16.9334 241 -5 219.256 -5 192.59L-5 148.282L312 145Z" fill="#8C8C2F"/>
<path d="M326.965 217.364C318.274 231.463 302.962 241 285.167 241H65.8329C38.9334 241 17 219.023 17 192.07V181.703C96.8708 177.971 244.197 171.751 191.64 184.191C120.46 200.777 159.36 219.437 264.475 216.12C287.236 215.705 308.342 216.12 326.965 217.364ZM334 159.311V180.459C326.551 180.874 319.102 180.874 311.239 180.874C263.648 181.288 225.161 176.727 225.161 170.922C225.161 164.702 263.648 159.726 311.239 159.311C319.102 158.896 326.965 158.896 334 159.311Z" fill="#6B6B1E"/>
<path d="M89 180C107.221 159.709 119.307 134.252 126.93 108.612C123.955 108.612 125.256 104.738 125.628 103.078C125.814 101.049 127.673 101.233 128.975 101.233C135.854 75.4078 137.714 53.0874 137.899 44.9709V44.0485C133.251 44.0485 133.623 43.6796 134.181 38.5146C134.367 36.301 136.784 36.6699 138.271 36.6699C138.271 32.7961 140.874 29.2913 144.407 28L147.01 9H149.985L151.658 28C155.005 29.4757 157.422 32.7961 157.422 36.6699C161.698 36.6699 161.327 36.6699 161.698 41.6505C161.884 44.233 158.724 43.8641 157.422 43.8641V45.1553C157.422 58.068 158.538 77.6214 163.744 101.049C167.276 101.049 166.905 101.417 167.462 106.029C167.648 107.32 166.719 108.427 165.417 108.427C171.925 134.068 182.709 159.524 200 179.816H173.784C173.784 163.214 161.141 150.67 144.965 150.67C128.603 150.67 114.844 164.505 114.844 179.816H89V180ZM133.065 132.592H158.166L152.96 108.612L149.241 90.1651C149.055 89.2427 148.312 88.5049 147.196 88.5049C146.266 88.5049 145.337 89.2427 145.151 90.1651L141.618 108.612H139.201L133.065 132.592Z" fill="white"/>
<path d="M93 180C138.957 127.039 138.771 44 138.771 44H148.593H158.414C158.414 44 158.043 127.039 204 180H177.501C177.501 163.946 164.344 150.844 148.222 150.844C132.1 150.844 118.943 163.946 118.943 180H93ZM138.586 132.575H158.414C159.155 132.575 159.711 132.391 160.082 131.837C160.452 131.284 160.638 130.73 160.452 129.992C158.599 123.349 156.932 116.152 155.449 108.402L150.075 86.2578C149.89 85.3351 148.963 84.597 148.037 84.7815C147.11 84.7815 146.184 85.5197 145.998 86.4423L141.736 108.586C140.254 116.152 138.401 123.533 136.733 130.176C136.548 130.73 136.733 131.468 137.104 132.022C137.289 132.391 137.845 132.575 138.586 132.575Z" fill="#F0E7DA"/>
<path d="M196.575 171.139C198.803 174.152 201.401 177.165 204 180H177.642C177.642 177.165 177.271 174.506 176.528 172.025C179.498 178.582 192.677 178.051 196.575 171.139ZM93 180C97.0836 175.57 100.796 170.785 104.137 166C104.137 166 108.406 176.278 121.214 169.013C119.729 172.38 118.801 176.101 118.801 180H93Z" fill="#CCC5BA"/>
<path d="M118 141.038C118.186 140.692 118.372 140.346 118.372 140H179.395C180.326 141.731 181.07 143.635 182 145.365H179.581C178.837 146.577 176.233 147.442 173.07 147.442C169.349 147.442 166.372 146.231 166.372 144.5V144.327L118 141.038ZM128.605 146.231C129.349 146.231 130.093 146.923 130.093 147.615C130.093 148.308 129.349 149 128.605 149C127.86 149 127.116 148.308 127.116 147.615C127.116 146.923 127.674 146.231 128.605 146.231Z" fill="#CCC5BA"/>
<path d="M139 46.1639C139 44.7213 139 44 139 44H148.907H158.813C158.813 44 158.813 45.4426 159 48.3279L155.636 47.9672C155.822 48.1475 155.822 48.5082 155.822 48.6885C155.822 49.7705 154.888 50.4918 153.953 50.4918C152.832 50.4918 152.084 49.5902 152.084 48.6885C152.084 48.3279 152.271 47.9672 152.458 47.6066L139 46.1639ZM142.364 52.1148C143.112 52.1148 143.86 52.8361 143.86 53.5574C143.86 54.2787 143.112 55 142.364 55C141.617 55 140.869 54.2787 140.869 53.5574C140.869 52.6557 141.617 52.1148 142.364 52.1148Z" fill="#CCC5BA"/>
<path d="M129 110.13C129.553 108.42 129.921 106.71 130.289 105H166.763C167.316 107.47 168.053 109.94 168.789 112.41L155.895 111.65C155.711 110.51 155.526 109.56 155.158 108.42H141.711C141.526 109.18 141.342 110.13 141.158 110.89L129 110.13ZM139.5 114.5C139.868 114.5 140.053 114.5 140.421 114.69C140.053 116.78 139.5 118.68 139.132 120.58C137.658 120.39 136.553 119.06 136.553 117.54C136.553 115.83 137.842 114.5 139.5 114.5ZM169.158 113.93C169.711 115.45 170.079 117.16 170.632 118.68C170.263 118.87 169.895 118.87 169.526 118.87C168.237 118.87 167.132 117.73 167.132 116.4C167.132 115.07 168.053 113.93 169.158 113.93ZM170.079 122.1C170.632 122.1 171 122.48 171 123.05C171 123.62 170.632 124 170.079 124C169.526 124 169.158 123.62 169.158 123.05C168.974 122.48 169.526 122.1 170.079 122.1Z" fill="#CCC5BA"/>
<path d="M114.109 140H183.891C184.632 140 185.187 139.821 185.557 139.282C185.927 138.744 186.112 138.205 185.927 137.667L185.002 134.436C184.817 133.538 183.891 133 182.966 133H115.034C114.109 133 113.368 133.538 112.998 134.436L112.073 137.667C111.888 138.205 112.073 138.923 112.443 139.282C112.998 139.641 113.553 140 114.109 140Z" fill="#F0E7DA"/>
<path d="M136.993 44H137.174H142.611H154.389H160.007C160.55 44 161.094 43.8158 161.456 43.2632C161.819 42.8947 162 42.3421 162 41.7895L161.819 38.4737C161.638 37.3684 160.913 36.6316 159.826 36.6316H157.832C157.832 32.7632 155.477 29.2632 152.034 27.9737L150.04 9H147.141L145.148 27.9737C141.705 29.4474 139.349 32.7632 139.349 36.6316H137.356C136.268 36.6316 135.544 37.3684 135.362 38.4737L135 41.7895C135 42.3421 135.181 42.8947 135.544 43.2632C135.906 43.6316 136.45 44 136.993 44Z" fill="#F0E7DA"/>
<path d="M137.243 44H137.43H140.42H142.476C143.41 44 144.158 43.2 143.971 42.2L143.784 37.8C143.784 36.8 142.85 36 141.915 36H140.794H139.486H137.43C136.308 36 135.561 36.8 135.374 38L135 41.6C135 42.2 135.187 42.8 135.561 43.2C136.121 43.6 136.682 44 137.243 44Z" fill="white"/>
<path d="M129.057 109H167.943C168.504 109 169.065 108.8 169.439 108.2C169.813 107.6 170 107 170 106.4L169.439 102.8C169.252 101.8 168.504 101 167.383 101H129.617C128.683 101 127.748 101.8 127.561 102.8L127 106.4C127 107 127 107.6 127.561 108.2C127.935 108.6 128.496 109 129.057 109Z" fill="#F0E7DA"/>
<path d="M0 121C8.19131 121.904 16.0792 126.123 16.9894 139.384C27.6078 133.055 31.2483 144.808 26.3942 149.027C26.3942 149.027 56.7324 139.685 80.0928 153.247C103.453 167.11 90.1044 200.562 90.1044 200.562C90.1044 200.562 100.116 199.055 102.846 208.699H35.7991C16.0792 209 0 193.027 0 173.438L0 121ZM128.331 209H111.038C109.824 203.575 109.217 197.548 112.251 196.644C117.409 195.438 120.746 203.877 120.746 203.877C120.746 203.877 123.78 192.726 129.544 195.137C132.275 196.644 130.758 202.973 128.331 209Z" fill="#4A283E"/>
<path d="M144.146 29.6688C145.562 28.6515 146.801 28.855 146.978 29.8723C147.155 30.8896 146.27 32.5173 144.854 33.3312C143.438 34.3485 142.199 34.145 142.022 33.1277C141.845 32.1104 142.73 30.4827 144.146 29.6688Z" fill="white"/>
<path d="M127.75 109H141.25C141.438 109 141.625 108.8 141.813 108.2C142 107.6 142 107 142 106.4L141.813 102.8C141.813 101.8 141.438 101 141.062 101H127.938C127.562 101 127.375 101.8 127.188 102.8L127 106.4C127 107 127 107.6 127.188 108.2C127.375 108.6 127.563 109 127.75 109Z" fill="white"/>
<path d="M112.93 140H148.07C148.442 140 148.628 139.825 148.814 139.3C149 138.775 149 138.25 149 137.725L148.628 134.575C148.442 133.525 148.07 133 147.513 133H113.302C112.744 133 112.372 133.525 112.372 134.4L112 137.55C112 138.075 112 138.775 112.186 139.125C112.372 139.65 112.558 140 112.93 140Z" fill="white"/>
<path d="M42.319 114C46.5205 114 51.1887 116.567 52.5892 119.5C53.9897 122.433 51.6555 125 47.9209 125C43.7195 125 39.0512 122.433 37.6508 119.5C35.7835 116.2 38.1176 114 42.319 114Z" fill="#8C8C2F"/>
<path d="M302.943 123.236C300.727 123.685 298.511 126.378 298.068 128.622C297.625 130.866 299.398 132.662 302.057 131.764C304.273 131.315 306.489 128.622 306.932 126.378C307.375 124.134 305.602 122.338 302.943 123.236Z" fill="#8C8C2F"/>
<path d="M66.0717 125.475C57.2791 133.965 46.0609 148.215 37.2683 169.438H37.8747C46.6673 148.518 57.8855 134.571 66.3749 126.081L66.0717 125.475Z" fill="#4A283E"/>
<path d="M45.4547 153.369C45.4547 153.369 47.577 137.906 41.21 140.028C34.8429 141.847 40.3004 152.156 45.4547 153.369Z" fill="#4A283E"/>
<path d="M47.8802 148.821C47.8802 148.821 61.8271 141.544 61.5239 148.214C61.2207 155.188 47.577 151.246 47.8802 148.821Z" fill="#4A283E"/>
<path d="M52.1251 142.757C52.1251 142.757 54.8538 129.113 48.7899 130.932C42.7261 132.752 46.0612 141.241 52.1251 142.757Z" fill="#4A283E"/>
<path d="M54.5503 139.119C54.5503 139.119 63.9493 134.268 65.162 139.422C66.3748 144.273 54.2471 143.667 54.5503 139.119Z" fill="#4A283E"/>
<path d="M59.0984 133.358C59.0984 133.358 62.1303 124.869 57.5824 124.262C53.0345 123.959 53.9441 133.055 59.0984 133.358Z" fill="#4A283E"/>
<path d="M62.7366 129.416C62.7366 129.416 71.5292 125.475 71.226 130.023C71.226 134.571 61.827 133.055 62.7366 129.416Z" fill="#4A283E"/>
<path d="M39.3907 165.497C39.3907 165.497 41.5131 150.034 35.146 152.156C28.7789 153.975 34.2364 164.284 39.3907 165.497Z" fill="#4A283E"/>
<path d="M41.5129 160.949C41.5129 160.949 55.4598 153.672 55.1566 160.342C54.5502 167.316 41.2097 163.374 41.5129 160.949Z" fill="#4A283E"/>
<path d="M-14 15.6752V25H45.7852C44.7112 17.5401 29.6754 11.9453 18.2196 20.4224C17.5036 15.5056 4.61575 2.62045 -14 15.6752ZM56.1671 20.4224C58.852 20.4224 61 22.4569 61 25H51.3341C51.1551 22.4569 53.4821 20.4224 56.1671 20.4224Z" fill="white"/>
<path d="M266 35H238.556C239.711 26.0348 252.422 18.5157 266 20.2509V35ZM221.8 26.9024C217.467 26.9024 214 30.3728 214 34.7108H229.6C229.6 30.662 226.133 26.9024 221.8 26.9024Z" fill="white"/>
</svg>
