<svg width="311" height="181" viewBox="0 0 311 181" fill="none" xmlns="http://www.w3.org/2000/svg">
<path d="M46.047 -115.015L263.916 -115.015C290.586 -115.015 312.332 -93.2689 312.332 -66.5994V151.27C312.332 177.939 290.586 199.685 263.916 199.685H46.047C19.3775 199.275 -2.36841 177.529 -2.36841 150.86L-2.36841 -66.5994C-2.36841 -93.2689 19.3775 -115.015 46.047 -115.015Z" fill="#FFB291"/>
<path d="M311.921 25.7182V150.86C311.921 177.529 290.175 199.275 263.506 199.275H46.047C19.3775 199.275 -2.36841 177.529 -2.36841 150.86L-2.36841 50.3362C29.2247 47.4641 66.562 56.901 107.592 92.5971C140.416 121.318 163.803 128.703 182.267 125.011V-1.77188H175.702V-17.3633H182.267L190.883 -44.0328C191.293 -46.0843 193.345 -47.3152 194.986 -47.3152C197.037 -47.3152 198.679 -46.0843 199.089 -44.0328L207.705 -17.3633H213.86V-39.1092H207.295V-54.7006H213.86L223.297 -81.3701C223.707 -83.4216 225.758 -84.6525 227.4 -84.6525C229.451 -84.6525 231.092 -83.4216 231.503 -81.3701L240.119 -54.7006H247.915V-39.1092H240.119V70.8512C249.145 58.9525 258.993 47.4641 270.481 38.8478V-12.85H264.327V-28.4414H270.891L279.508 -55.1109C279.918 -57.1624 281.969 -58.3933 283.611 -58.3933C285.662 -58.3933 287.303 -57.1624 287.714 -55.1109L296.33 -28.4414H304.126V-12.85H296.33V26.9491C301.664 26.1285 306.587 25.7182 311.921 25.7182ZM208.526 110.24C210.577 108.188 212.629 106.137 214.68 104.085V-1.77188H208.526V110.24Z" fill="#FF9378"/>
<path d="M311.921 119.677V150.859C311.921 177.529 290.175 199.275 263.506 199.275H170.778C174.06 191.069 183.497 179.17 213.039 181.632C213.039 181.632 198.268 168.502 207.705 162.758C216.731 156.603 222.065 170.143 222.065 170.143C222.065 170.143 219.193 153.321 224.527 150.449C229.861 147.987 227.81 167.682 227.81 167.682C227.81 167.682 245.863 132.806 286.072 138.55C285.252 138.55 289.765 121.318 311.921 119.677Z" fill="#8C8C2F"/>
<path d="M311.922 144.705V151.27C311.922 158.245 310.28 165.22 307.408 171.375C303.305 169.323 300.433 164.81 300.433 159.476C300.844 152.091 305.357 146.347 311.922 144.705ZM305.357 175.478C296.741 189.838 281.559 199.275 263.506 199.275H216.322C218.784 195.583 222.887 192.71 227.4 192.3C228.631 192.3 229.862 192.3 231.093 192.71C232.734 178.35 245.043 166.451 259.814 165.631C271.302 164.81 281.559 170.965 286.073 180.812C289.355 177.119 293.458 174.657 298.382 174.657C301.254 174.247 303.305 174.657 305.357 175.478Z" fill="#6B6B1E"/>
<path d="M67.3822 141.422C70.2543 141.422 72.7161 143.474 73.5367 145.936C72.3058 145.115 71.075 144.705 69.8441 144.705C66.1514 144.705 62.869 147.577 62.4587 151.27C60.8175 151.27 59.5866 152.501 59.5866 154.142L57.9453 199.275H55.4836L57.5351 150.859C57.5351 149.218 58.766 147.987 60.4072 147.987C60.4072 144.295 63.6895 141.422 67.3822 141.422ZM76.4089 150.039C76.8192 150.449 76.8191 150.859 76.8191 151.68V152.09H76.4089C76.4089 151.27 76.4089 150.449 76.4089 150.039ZM124.414 143.474C127.286 143.474 129.748 145.525 130.568 147.987C129.338 147.167 128.107 146.756 126.876 146.756C123.183 146.756 119.901 149.628 119.49 153.321C117.849 153.321 116.618 154.552 116.618 156.193L114.977 199.275H112.515L114.156 152.911C114.156 151.27 115.387 150.039 117.029 150.039C117.439 146.346 120.721 143.474 124.414 143.474ZM133.441 152.09C133.851 152.501 133.851 152.911 133.851 153.731V154.142H133.441C133.441 153.321 133.441 152.911 133.441 152.09ZM39.0716 140.192C41.9437 140.192 44.4055 142.243 45.2261 144.705C43.9952 143.884 42.7643 143.474 41.5334 143.474C37.8407 143.474 34.5583 146.346 34.148 150.039C32.5068 150.039 31.2759 151.27 31.2759 152.911L29.6347 196.403C28.8141 195.992 27.9935 195.582 27.1729 195.582L28.8141 149.628C28.8141 147.987 30.045 146.756 31.6862 146.756C31.6862 143.064 34.9686 140.192 39.0716 140.192ZM47.6878 148.808C48.0981 149.218 48.0982 149.628 48.0982 150.449V150.859H47.6878C48.0981 150.039 48.0981 149.628 47.6878 148.808ZM96.1032 142.653C98.9753 142.653 101.437 144.705 102.258 147.167C101.027 146.346 99.796 145.936 98.5651 145.936C94.8724 145.936 91.5899 148.808 91.1796 152.501C89.5384 152.501 88.3075 153.731 88.3075 155.373L86.6664 199.685H83.7942L85.4354 152.09C85.4354 150.449 86.6663 149.218 88.3075 149.218C88.7178 145.525 92.0002 142.243 96.1032 142.653ZM104.72 150.859C105.13 151.27 105.13 151.68 105.13 152.501V152.911H104.72C105.13 152.501 105.13 151.68 104.72 150.859Z" fill="#E37165"/>
<path d="M143.698 131.986L141.236 199.275H46.0469C35.7894 199.275 25.9422 195.993 18.1465 190.248L20.6083 127.062L143.698 131.986Z" fill="#FF9378"/>
<path d="M143.699 131.986L143.288 143.474L20.6086 127.883V127.472L143.699 131.986Z" fill="#E37165"/>
<path d="M20.608 105.316L136.313 109.829L135.492 131.575L19.7874 127.062L20.608 105.316Z" fill="white"/>
<path d="M147.391 36.3856L144.519 109.829L21.4292 105.316L24.3013 31.462L147.391 36.3856Z" fill="#FFB291"/>
<path d="M147.391 36.3856L146.981 45.4122L24.301 32.2826V31.462L147.391 36.3856Z" fill="#FF9378"/>
<path d="M138.365 -58.8039L135.493 15.0501L37.8413 10.9471L40.7134 -62.9069C41.1237 -62.9069 41.534 -62.9069 41.9443 -62.9069L137.134 -58.8039C137.544 -58.8039 137.954 -58.8039 138.365 -58.8039Z" fill="#FFCDCC"/>
<path d="M67.3822 141.422C71.0749 141.422 74.3574 144.705 73.9471 148.808C75.5883 148.808 76.8191 150.039 76.8191 151.68L74.7676 199.685H55.0733L57.1248 151.27C57.1248 149.628 58.3556 148.398 59.9968 148.398C60.4071 144.295 63.6895 141.422 67.3822 141.422ZM124.414 143.474C128.107 143.474 131.389 146.756 130.979 150.859C132.62 150.859 133.851 152.09 133.851 153.731L132.21 199.275H112.515L114.156 152.911C114.156 151.27 115.387 150.039 117.029 150.039C117.439 146.346 120.721 143.474 124.414 143.474ZM39.0716 140.192C42.7643 140.192 46.0467 143.474 45.6364 147.577C47.2776 147.577 48.5084 148.808 48.5084 150.449L46.4569 199.275H46.0467C39.4819 199.275 32.9171 198.044 27.1729 195.172L28.8141 149.218C28.8141 147.577 30.045 146.346 31.6862 146.346C31.6862 143.064 34.9686 140.192 39.0716 140.192ZM96.1032 142.653C99.7959 142.653 103.078 145.936 102.668 150.039C104.309 150.039 105.54 151.27 105.54 152.911L103.899 199.685H83.7942L85.4354 152.09C85.4354 150.449 86.6663 149.218 88.3075 149.218C88.7178 145.525 92.0002 142.243 96.1032 142.653Z" fill="#4A283E"/>
<path d="M71.0749 48.2846C74.7676 48.2846 78.05 51.567 77.6397 55.67C79.2809 55.67 80.5118 56.9009 80.5118 58.5421L78.4603 110.24C78.4603 111.881 77.2294 113.112 75.5882 113.112L61.638 112.702C59.9968 112.702 58.7659 111.471 58.7659 109.83L60.8174 58.1318C60.8174 56.4906 62.0483 55.2597 63.6895 55.2597C64.0998 51.1567 66.9719 47.8743 71.0749 48.2846ZM128.107 50.3361C131.799 50.3361 135.082 53.6185 134.671 57.7215C136.313 57.7215 137.543 58.9524 137.543 60.5936L135.492 112.291C135.492 113.933 134.261 115.163 132.62 115.163L118.67 114.753C117.029 114.753 115.798 113.522 115.798 111.881L117.849 60.1833C117.849 58.5421 119.08 57.3112 120.721 57.3112C120.721 53.2082 124.004 50.3361 128.107 50.3361ZM42.3539 47.0537C46.0466 47.0537 49.329 50.3361 48.9187 54.4391C50.5599 54.4391 51.7908 55.67 51.7908 57.3112L49.7393 109.009C49.7393 110.65 48.5084 111.881 46.8672 111.881L32.917 111.471C31.2758 111.471 30.0449 110.24 30.0449 108.599L32.0964 56.9009C32.0964 55.2597 33.3273 54.0288 34.9685 54.0288C35.3788 49.9258 38.6612 47.0537 42.3539 47.0537ZM99.3856 49.1052C103.078 49.1052 106.361 52.3876 105.95 56.4906C107.592 56.4906 108.823 57.7215 108.823 59.3627L106.771 111.06C106.771 112.702 105.54 113.933 103.899 113.933L89.9487 113.522C88.3075 113.522 87.0766 112.291 87.0766 110.65L89.1281 58.9524C89.1281 57.3112 90.359 56.0803 92.0002 56.0803C92.4105 51.9773 95.6929 49.1052 99.3856 49.1052Z" fill="#4A283E"/>
<path d="M89.1286 -48.5461C92.8213 -48.5461 96.1037 -45.2637 95.6934 -41.1607C97.3346 -41.1607 98.5655 -39.9298 98.5655 -38.2886L96.514 13.4092C96.514 15.0504 95.2831 16.2813 93.6419 16.2813L79.6917 15.4607C78.0505 15.4607 76.8196 14.2298 76.8196 12.5886L78.8711 -39.1092C78.8711 -40.7504 80.102 -41.9813 81.7432 -41.9813C81.7432 -45.674 85.0256 -48.5461 89.1286 -48.5461ZM60.4076 -49.777C64.1003 -49.777 67.3827 -46.4946 66.9724 -42.3916C68.6136 -42.3916 69.8445 -41.1607 69.8445 -39.5195L67.793 12.1783C67.793 13.8195 66.5621 15.0504 64.9209 15.0504L50.9707 14.2298C49.3295 14.2298 48.0986 12.9989 48.0986 11.3577L50.1501 -40.3401C50.1501 -41.9813 51.381 -43.2122 53.0222 -43.2122C53.4325 -46.9049 56.7149 -49.777 60.4076 -49.777ZM117.439 -47.3152C121.132 -47.3152 124.414 -44.0328 124.004 -39.9298C125.645 -39.9298 126.876 -38.6989 126.876 -37.0577L124.825 14.2298C124.825 15.871 123.594 17.1019 121.953 17.1019L108.002 16.6916C106.361 16.6916 105.13 15.4607 105.13 13.8195L107.182 -37.8783C107.182 -39.5195 108.413 -40.7504 110.054 -40.7504C110.464 -44.4431 113.747 -47.7255 117.439 -47.3152Z" fill="#6E284B"/>
<path d="M71.0753 48.2846C73.9474 48.2846 76.4092 50.3361 77.2298 52.7979C75.9989 51.9773 74.768 51.567 73.5371 51.567C69.8444 51.567 66.562 54.4391 66.1517 58.1318C64.5105 58.1318 63.2796 59.3627 63.2796 61.0039L61.6384 106.957H59.1766L61.2281 57.7215C61.2281 56.0803 62.459 54.8494 64.1002 54.8494C64.1002 51.1567 66.9723 47.8743 71.0753 48.2846ZM80.1019 56.9009C80.5122 57.3112 80.5122 57.7215 80.5122 58.5421V58.9524H80.1019C80.1019 58.1318 80.1019 57.3112 80.1019 56.9009ZM128.107 50.3361C130.979 50.3361 133.441 52.3876 134.261 54.8494C133.031 54.0288 131.8 53.6185 130.569 53.6185C126.876 53.6185 123.594 56.4906 123.183 60.1833C121.542 60.1833 120.311 61.4142 120.311 63.0554L118.67 109.009H116.208L118.26 59.773C118.26 58.1318 119.491 56.9009 121.132 56.9009C120.722 53.2082 124.004 50.3361 128.107 50.3361ZM137.134 58.9524C137.544 59.3627 137.544 59.773 137.544 60.5936V61.0039H137.134C137.134 60.1833 137.134 59.3627 137.134 58.9524ZM42.3543 47.0537C45.2264 47.0537 47.6882 49.1052 48.5088 51.567C47.2779 50.7464 46.047 50.3361 44.8161 50.3361C41.1234 50.3361 37.841 53.2082 37.4307 56.9009C35.7895 56.9009 34.5586 58.1318 34.5586 59.773L32.9174 105.727H30.4556L32.5071 56.4906C32.5071 54.8494 33.738 53.6185 35.3792 53.6185C35.3792 49.9258 38.6616 47.0537 42.3543 47.0537ZM51.3809 55.67C51.7912 56.0803 51.7912 56.4906 51.7912 57.3112V57.7215H51.3809C51.7912 56.9009 51.7912 56.0803 51.3809 55.67ZM99.386 49.1052C102.258 49.1052 104.72 51.1567 105.54 53.6185C104.31 52.7979 103.079 52.3876 101.848 52.3876C98.1551 52.3876 94.8727 55.2597 94.4624 58.9524C92.8212 58.9524 91.5903 60.1833 91.5903 61.8245L89.9491 107.778H87.4873L89.5388 58.5421C89.5388 56.9009 90.7697 55.67 92.4109 55.67C92.4109 51.9773 95.6933 49.1052 99.386 49.1052ZM108.413 57.7215C108.823 58.1318 108.823 58.5421 108.823 59.3627V59.773H108.413C108.823 58.9524 108.823 58.5421 108.413 57.7215Z" fill="#C45368"/>
<path d="M89.128 -48.5461C92.0001 -48.5461 94.4619 -46.4946 95.2825 -44.0328C94.0516 -44.8534 92.8207 -45.2637 91.5898 -45.2637C87.8971 -45.2637 84.6147 -42.3916 84.2044 -38.6989C82.5632 -38.6989 81.3323 -37.468 81.3323 -35.8268L79.2808 12.5886H76.819L78.8705 -39.1092C78.8705 -40.7504 80.1014 -41.9813 81.7426 -41.9813C81.7426 -45.674 85.025 -48.5461 89.128 -48.5461ZM98.1546 -39.9298C98.5649 -39.5195 98.5649 -39.1092 98.5649 -38.2886V-37.8783H98.1546C98.1546 -38.6989 98.1546 -39.5195 98.1546 -39.9298ZM60.407 -49.777C63.2791 -49.777 65.7409 -47.7255 66.5615 -45.2637C65.3306 -46.0843 64.0997 -46.4946 62.8688 -46.4946C59.1761 -46.4946 55.8937 -43.6225 55.4834 -39.9298C53.8422 -39.9298 52.6113 -38.6989 52.6113 -37.0577L50.9701 11.3577H48.5083L50.5598 -40.3401C50.5598 -41.9813 51.7907 -43.2122 53.4319 -43.2122C53.4319 -46.9049 56.7143 -49.777 60.407 -49.777ZM69.4336 -41.1607C69.8439 -40.7504 69.8439 -40.3401 69.8439 -39.5195V-39.1092H69.4336C69.8439 -39.9298 69.8439 -40.3401 69.4336 -41.1607ZM117.439 -47.3152C120.311 -47.3152 122.773 -45.2637 123.593 -42.8019C122.362 -43.6225 121.131 -44.0328 119.9 -44.0328C116.208 -44.0328 112.925 -41.1607 112.515 -37.468C110.874 -37.468 109.643 -36.2371 109.643 -34.5959L107.591 13.8195H105.13L107.181 -37.8783C107.181 -39.5195 108.412 -40.7504 110.053 -40.7504C110.464 -44.4431 113.746 -47.7255 117.439 -47.3152ZM126.465 -38.6989C126.876 -38.2886 126.876 -37.8783 126.876 -37.0577V-36.6474H126.465C126.876 -37.468 126.876 -38.2886 126.465 -38.6989Z" fill="#E37165"/>
<path d="M4.19678 175.478C10.7616 186.556 21.0191 194.351 33.7384 197.634C39.0723 189.428 48.5092 173.016 41.9444 167.682C32.9178 160.297 15.6852 181.222 15.6852 181.222C15.6852 181.222 28.4045 154.552 17.3264 151.27C9.53068 148.808 4.60708 161.117 4.19678 175.478Z" fill="#6B6B1E"/>
<path d="M34.9692 198.044C47.2782 184.094 67.7932 157.424 57.1254 150.859C42.3546 141.422 18.5572 177.939 18.5572 177.939C18.5572 177.939 38.2516 144.295 20.1984 135.268C10.7615 130.755 4.60701 149.218 0.914307 168.092C6.65851 182.863 19.3778 194.351 34.9692 198.044Z" fill="#8C8C2F"/>
<path d="M34.9692 198.044C37.0207 195.992 39.0722 193.531 41.1237 190.659C44.8164 182.863 46.8679 173.426 40.7134 168.092C34.5589 162.758 27.9941 166.451 23.0705 170.964C20.1984 174.657 18.5572 177.529 18.5572 177.529C18.5572 177.529 19.3778 176.298 20.1984 174.247C17.3263 177.939 15.6851 180.811 15.6851 180.811C15.6851 180.811 25.5323 149.218 15.2748 150.449C9.53061 151.27 4.19671 160.296 0.914307 167.682C6.65851 183.273 19.3778 194.351 34.9692 198.044Z" fill="#6B6B1E"/>
<path d="M14.454 102.034L148.212 107.368C154.366 107.778 158.88 112.702 158.88 118.856C158.469 125.011 153.546 129.524 147.391 129.524L13.6334 123.78C7.47888 123.37 2.96558 118.446 2.96558 112.291C2.96558 106.547 8.29947 101.624 14.454 102.034Z" fill="white"/>
<path d="M16.0948 104.906L149.853 110.24C156.007 110.65 160.52 115.574 160.52 121.728C160.11 127.883 155.187 132.396 149.032 132.396L15.2742 127.062C9.11975 126.652 4.60645 121.728 4.60645 115.574C5.01675 109.419 9.94034 104.906 16.0948 104.906Z" fill="#C45368"/>
<path d="M16.0948 104.906L43.5849 106.137C49.7394 106.547 54.2527 111.471 54.2527 117.625C53.8424 123.78 48.9188 128.293 42.7643 128.293L15.2742 127.062C9.11975 126.652 4.60645 121.728 4.60645 115.574C5.01675 109.419 9.94034 104.906 16.0948 104.906Z" fill="#E37165"/>
<path d="M21.0188 8.0752L148.622 12.9988C154.366 13.4091 158.88 18.3327 158.88 24.0769C158.469 29.8211 153.546 34.3344 147.801 34.3344L20.1982 29.4108C14.454 29.0005 9.94067 24.0769 9.94067 18.3327C10.351 12.5885 15.2746 8.0752 21.0188 8.0752Z" fill="white"/>
<path d="M22.6594 10.5368L150.263 15.4604C156.007 15.8707 160.52 20.7943 160.52 26.5385C160.11 32.2827 155.186 36.796 149.442 36.796L21.8388 31.4621C16.0946 31.0518 11.5813 26.1282 11.5813 20.384C11.9916 14.6398 16.9152 10.1265 22.6594 10.5368Z" fill="#C45368"/>
<path d="M22.6597 10.5368L49.7395 11.7676C55.4837 12.1779 60.4073 17.1015 59.997 22.8457C59.5867 29.0002 54.6631 33.5135 48.9189 33.1032L22.2494 31.8723C16.095 31.462 11.5817 26.5384 11.992 20.7942C11.5817 15.05 16.5052 10.1265 22.6597 10.5368Z" fill="#E37165"/>
<path d="M207.295 84.3909C207.295 84.3909 199.499 83.9806 192.934 87.263C192.934 87.263 189.652 80.6982 182.267 78.6467C182.267 78.6467 189.242 78.2364 194.165 82.7497C194.165 82.7497 201.14 81.5188 207.295 84.3909Z" fill="white"/>
<path d="M236.426 61.4141C236.426 61.4141 231.092 61.4141 226.168 63.4656C226.168 63.4656 223.706 58.9523 218.783 57.3111C218.783 57.3111 223.706 56.9008 226.989 60.1832C226.989 60.1832 231.912 59.3626 236.426 61.4141Z" fill="white"/>
</svg>
